<?xml version="1.0" encoding="UTF-8"?>
<svg width="33px" height="41px" viewBox="0 0 33 41" version="1.1" xmlns="http://www.w3.org/2000/svg" xmlns:xlink="http://www.w3.org/1999/xlink">
    <!-- Generator: Sketch 50.2 (55047) - http://www.bohemiancoding.com/sketch -->
    <title>Logo 2</title>
    <desc>Created with Sketch.</desc>
    <defs>
        <path d="M31.9788839,39.7935484 L22.2847305,39.7935484 L14.54123,25.6540117 L8.39371813,25.6540117 L8.39371813,39.7935484 L0,39.7935484 L0,0 L18.4425356,0 C26.6589217,0 31.7424411,5.4291048 31.7424411,12.8270059 C31.7424411,19.8072835 27.3091393,23.625555 23.0531695,24.6397833 L31.9788839,39.7935484 Z M17.2603218,18.1964502 C20.5705205,18.1964502 23.1122802,16.1679934 23.1122802,12.7673454 C23.1122802,9.48601828 20.5705205,7.45756154 17.2603218,7.45756154 L8.39371813,7.45756154 L8.39371813,18.1964502 L17.2603218,18.1964502 Z" id="path-1"></path>
    </defs>
    <g id="Design" stroke="none" stroke-width="1" fill="none" fill-rule="evenodd">
        <g id="Desktop-HD" transform="translate(-26.000000, -23.000000)">
            <g id="header" transform="translate(0.000000, -67.000000)">
                <g id="Logo-2" transform="translate(17.000000, 86.000000)">
                    <g id="The-R" transform="translate(9.135484, 4.645161)">
                        <mask id="mask-2" fill="white">
                            <use xlink:href="#path-1"></use>
                        </mask>
                        <use id="Letter-Outline" fill="#3D475C" xlink:href="#path-1"></use>
                    </g>
                </g>
            </g>
        </g>
    </g>
</svg>