<?xml version="1.0" encoding="UTF-8"?>
<svg width="172px" height="203px" viewBox="0 0 172 203" version="1.1" xmlns="http://www.w3.org/2000/svg" xmlns:xlink="http://www.w3.org/1999/xlink">
    <!-- Generator: Sketch 50.2 (55047) - http://www.bohemiancoding.com/sketch -->
    <title>Logo</title>
    <desc>Created with Sketch.</desc>
    <defs></defs>
    <g id="Symbols" stroke="none" stroke-width="1" fill="none" fill-rule="evenodd">
        <g id="Logo-Red" fill="#D64141">
            <g id="Logo">
                <path d="M79.109589,137.36 C67.5675602,138.435114 55.9648205,138.435114 44.3013699,137.36 L44.3013699,202 L0,202 L0,0 L92.0547945,0 C139.520548,0 168,25.1057143 168,66.66 C168,99.8457143 157.458075,117.77536 131.782421,127.010043 C125.72005,129.190477 131.782421,150.637255 118.869451,140.271705 C100.301871,125.531597 88.6585807,136.470533 79.109589,137.36 Z M123.123288,69.5457143 L123.123288,68.9685714 C123.123288,49.9228571 109.890411,40.1114286 88.3150685,40.1114286 L44.3013699,40.1114286 L44.3013699,98.1142857 C51.9709357,98.1142857 57.72311,98.1142857 61.5578929,98.1142857 C67.6957128,98.1142857 76.9024425,98.1142857 89.1780822,98.1142857 C110.753425,98.1142857 123.123288,86.5714286 123.123288,69.5457143 Z" id="R"></path>
                <path d="M81.3817433,140.924955 C82.6988626,145.777931 84.8921054,149.154173 87.9614716,151.053678 C99.8282067,144.173691 105.128948,146.419322 117.43142,154.629123 C125.633068,160.102324 133.155928,158.910509 140,151.053678 C140.031043,147.733234 137.175762,144.356993 131.434157,140.924955 C129.461551,141.787317 129.037035,150.994204 122.038328,147.198918 C116.640071,144.271532 109.226204,137.070585 100.610112,136.427571 C97.067035,136.163153 90.6575787,137.662281 81.3817433,140.924955 Z" id="Path-2"></path>
                <path d="M92.7270648,158.061725 C92.7270648,160.886525 97.2940748,167.933323 100.43278,169.772427 C104.722075,172.285713 92.9490827,150.309523 121.36654,168.753126 C132.985528,176.294124 144.675557,168.879762 149.186216,165.785675 C147.087077,158.431581 147.262621,159.108732 142.288144,155.271244 C138.602807,162.130845 130.852731,162.585739 123.745864,161.638393 C114.803809,160.446417 110.859413,152.450071 101.674104,151.627357 C96.0083817,151.119887 93.5722521,153.621632 92.7270648,158.061725 Z" id="Path-2"></path>
                <path d="M103.739024,173.865309 C103.739024,176.003228 112,187.936665 112,186.682547 C112,176.93146 125.213122,180.366499 131.878935,187.053684 C134.779228,189.963276 157.652503,182.435382 158.605864,179.037258 C155.361862,172.812334 156.102552,173.353618 152.552336,170.380803 C152.552336,169.810181 138.149039,183.19882 132.90192,179.037258 C126.842789,174.231679 105.780398,163.05368 103.739024,173.865309 Z" id="Path-2"></path>
                <path d="M114,189.983412 C114,192.121331 122.260976,204.054768 122.260976,202.80065 C122.260976,193.049562 125.196597,195.812397 140.832859,199.917995 C154.805272,203.586718 167.829028,193.728119 171.670453,198.343749 C168.426451,192.118824 165.92083,187.569398 162.370614,184.596583 C162.370614,184.025961 153.2217,191.01434 149.071376,191.898704 C142.754683,193.244686 136.487984,193.132543 130.739322,191.01434 C121.401393,187.573603 116.041374,179.171782 114,189.983412 Z" id="Path-2"></path>
            </g>
        </g>
    </g>
</svg>