<?xml version="1.0" encoding="UTF-8"?>
<svg width="38px" height="43px" viewBox="0 0 38 43" version="1.1" xmlns="http://www.w3.org/2000/svg" xmlns:xlink="http://www.w3.org/1999/xlink">
    <!-- Generator: Sketch 50.2 (55047) - http://www.bohemiancoding.com/sketch -->
    <title>Logo 2</title>
    <desc>Created with Sketch.</desc>
    <defs>
        <path d="M31.9788839,39.7935484 L22.2847305,39.7935484 L14.54123,25.6540117 L8.39371813,25.6540117 L8.39371813,39.7935484 L0,39.7935484 L0,0 L18.4425356,0 C26.6589217,0 31.7424411,5.4291048 31.7424411,12.8270059 C31.7424411,19.8072835 27.3091393,23.625555 23.0531695,24.6397833 L31.9788839,39.7935484 Z M17.2603218,18.1964502 C20.5705205,18.1964502 23.1122802,16.1679934 23.1122802,12.7673454 C23.1122802,9.48601828 20.5705205,7.45756154 17.2603218,7.45756154 L8.39371813,7.45756154 L8.39371813,18.1964502 L17.2603218,18.1964502 Z" id="path-1"></path>
        <path d="M25.499797,22.1610997 C27.4506114,25.2371135 21.9178457,25.6269704 26.3367466,27.8168871 C31.3358707,30.2943506 32.9913785,28.8649881 36.4531263,31.4679247 C41.7923591,32.1756389 37.5337591,27.0091327 39.7736354,23.9282362 C41.6048293,21.4094727 38.571423,20.0576748 36.4142285,17.7309454 C32.718102,13.7443386 32.6445381,14.487468 29.1866086,16.0414427 C28.5162153,16.3427137 22.1953121,16.3004833 25.499797,22.1610997 Z" id="path-3"></path>
        <path d="M9.99092467,3.83234733 C9.99092467,4.82820671 13.0232251,3.59160436 12.78706,6.53299231 C12.605869,8.78968839 9.58161396,8.94664853 10.3137353,9.56201464 C10.6195398,9.87497812 12.150491,11.6166206 12.78706,10.0074842 C12.9041976,9.71138061 14.2356935,8.57094472 15.8289896,9.40178959 C16.5605087,9.78324966 17.3804687,8.39033129 16.666751,7.06626229 C16.1593146,6.12488055 16.9859097,4.97326848 15.9905979,4.17537762 C14.25549,2.78442987 17.3871456,2.21415752 16.0980456,1.77259659 C16.1033416,1.7669547 13.9711687,2.07018364 13.5149459,1.52011629 C12.7332561,0.577633555 11.96925,1.68360186 11.2379362,2.05098051 C11.0961554,2.12220468 9.29206273,2.44682578 9.99092467,3.83234733 Z" id="path-5"></path>
        <path d="M5.20120795,23.559774 C5.20120795,27.7721587 12.8902809,18.7347638 11.8913262,31.176538 C11.1249068,40.7221347 17.8444056,32.224639 20.9412048,34.8275755 C22.2347273,36.1513795 26.2486104,28.9168186 26.043813,21.4528519 C25.9557486,18.2432934 21.3939037,19.0693778 19.4641276,16.7426484 C16.1576586,12.7560415 13.5693243,14.4707975 10.4759407,16.0247721 C9.87622247,16.3260432 2.24509245,17.6991577 5.20120795,23.559774 Z" id="path-7"></path>
        <path d="M30.7729922,23.6595874 C32.8465718,27.9613848 30.0294414,30.5412798 31.8442326,33.0024356 C32.7163142,34.1851221 35.6130106,32.9957368 36.9709992,34.7213558 C38.2645216,36.0451598 38.9685079,34.7958279 38.7637105,27.3318612 C38.6756461,24.1223027 42.8451483,21.3280439 40.9153722,19.0013145 C37.6089031,15.0147076 36.7303368,17.1657272 33.6369533,18.7197018 C33.037235,19.0209729 27.5087109,19.232684 30.7729922,23.6595874 Z" id="path-9"></path>
        <path d="M30.1525811,12.3838349 C32.2261607,16.6856324 32.755044,13.1993852 34.5698351,15.660541 C35.4419168,16.8432275 37.5841563,13.2599353 38.9421449,14.9855543 C40.2356674,16.3093582 41.9939088,12.1528488 41.489313,9.98996666 C40.7776955,6.93971381 42.1821943,5.69957356 40.2524182,3.37284415 C36.9459491,-0.613762712 35.7937619,0.659847898 32.7003783,2.21382253 C32.3137761,2.4080338 31.601454,5.61376076 29.2376263,6.27397337 C25.6156201,7.28559291 28.9453417,9.782236 30.1525811,12.3838349 Z" id="path-11"></path>
        <path d="M5.54150426,11.8110989 C5.54150426,13.2357614 8.14201068,10.1792416 7.80415617,14.3871499 C7.54494693,17.6155476 9.81753559,14.7416261 10.864898,15.6219602 C11.3023778,16.0696813 12.6599054,13.6228946 12.5906412,11.0985209 C12.5608571,10.0130223 11.0180045,10.2924107 10.3653386,9.5054921 C9.24706414,8.15718954 8.37166864,8.73713381 7.32546139,9.26270055 C7.12263184,9.36459286 4.54172219,9.82899124 5.54150426,11.8110989 Z" id="path-13"></path>
        <path d="M18.7882884,17.2698622 C18.9137349,20.3596666 17.3567252,17.430364 16.450705,20.8502771 C16.1197349,22.0995747 18.1953982,22.7676974 19.0862562,23.5164856 C19.0814164,23.5241099 21.0823731,24.4338385 21.8569612,22.4758134 C21.9994963,22.1155094 21.8438544,21.1634176 23.7826048,22.1744041 C24.6727298,22.6385714 26.5009941,22.0729753 25.6325299,20.4618251 C25.0150725,19.3163354 25.0065879,17.6397126 26.0160034,17.8013349 C28.022138,18.1225465 28.0694996,13.7863603 25.3045925,13.7863603 C25.3061337,13.7847185 23.5999756,14.2168083 23.3409802,14.48212 C22.5169918,15.3262038 22.2793394,16.7840442 21.8569612,16.2747832 C20.9057875,15.1279538 20.8727174,14.0350873 19.9828421,14.48212 C19.8103208,14.5687868 17.937901,15.5839355 18.7882884,17.2698622 Z" id="path-15"></path>
        <path d="M8.60559734,15.8829541 C8.70687962,18.377583 7.44978988,16.0125392 6.71829242,18.7736893 C6.45107566,19.7823402 8.12691303,20.3217653 8.84616888,20.9263177 C8.84226139,20.9324734 10.4577825,21.666965 11.0831651,20.0861057 C11.1982443,19.7952055 11.072583,19.026511 12.6378803,19.8427556 C13.3565445,20.2175123 14.8326381,19.7608645 14.1314625,18.4600632 C13.6329431,17.5352242 13.6260929,16.1815619 14.4410691,16.3120516 C16.0607707,16.5713896 16.0990093,13.070464 13.8666942,13.070464 C13.8679385,13.0691385 12.4904302,13.4179967 12.281324,13.6322026 C11.6160569,14.3136941 11.4241824,15.4907171 11.0831651,15.0795528 C10.3152118,14.1536322 10.2885119,13.2712798 9.57004936,13.6322026 C9.4307601,13.7021751 7.91901638,14.5217801 8.60559734,15.8829541 Z" id="path-17"></path>
        <path d="M27.4243909,11.7424646 C27.4243909,12.2354232 28.3242126,11.1778128 28.2073089,12.6338242 C28.1176179,13.7509074 28.9039741,12.7564793 29.2663802,13.0610906 C29.4177559,13.2160101 29.8874847,12.3693782 29.8635181,11.4958999 C29.8532123,11.120298 29.3193577,11.2169714 29.0935237,10.9446835 C28.7065808,10.4781468 28.4036783,10.6788178 28.0416719,10.8606733 C27.9714893,10.8959299 27.0784485,11.05662 27.4243909,11.7424646 Z" id="path-19"></path>
        <path d="M17.4345842,14.7363657 C17.4345842,14.9635136 17.8558532,14.4761827 17.8011224,15.1470908 C17.7591318,15.6618259 18.1272798,15.2036084 18.2969472,15.3439687 C18.3678167,15.4153533 18.5877294,15.0252381 18.5765089,14.6227524 C18.5716841,14.4496807 18.3217497,14.4942263 18.2160211,14.3687602 C18.0348663,14.1537871 17.8930566,14.2462533 17.7235763,14.3300495 C17.6907189,14.3462952 17.2726245,14.4203388 17.4345842,14.7363657 Z" id="path-21"></path>
        <path d="M5.54150426,11.8110989 C5.54150426,13.2357614 8.14201068,10.1792416 7.80415617,14.3871499 C7.54494693,17.6155476 9.81753559,14.7416261 10.864898,15.6219602 C11.3023778,16.0696813 12.6599054,13.6228946 12.5906412,11.0985209 C12.5608571,10.0130223 11.0180045,10.2924107 10.3653386,9.5054921 C9.24706414,8.15718954 8.37166864,8.73713381 7.32546139,9.26270055 C7.12263184,9.36459286 4.54172219,9.82899124 5.54150426,11.8110989 Z" id="path-23"></path>
        <path d="M28.1058819,35.9591353 C28.1058819,37.7582705 31.3899319,33.8983439 30.9632723,39.2123017 C30.6359299,43.2892844 33.5058689,39.659952 34.8285307,40.7716821 C35.3810021,41.3370869 37.0953561,38.2471617 37.0078858,35.059256 C36.970273,33.6884339 35.0218812,34.0412596 34.197662,33.0474993 C32.7854489,31.3447951 31.6799555,32.0771779 30.3587525,32.7408899 C30.1026092,32.8695647 26.8433069,33.4560302 28.1058819,35.9591353 Z" id="path-25"></path>
        <path d="M32.5289588,8.93886499 C32.5289588,10.7380002 35.8130089,6.87807367 35.3863492,12.1920314 C35.0590068,16.2690141 37.9289458,12.6396818 39.2516077,13.7514119 C39.804079,14.3168166 41.518433,11.2268915 41.4309627,8.03898571 C41.3933499,6.66816365 39.4449581,7.02098936 38.6207389,6.02722902 C37.2085258,4.32452488 36.1030324,5.05690761 34.7818294,5.72061967 C34.5256861,5.84929438 31.2663839,6.43575997 32.5289588,8.93886499 Z" id="path-27"></path>
        <path d="M27.4243909,11.7424646 C27.4243909,12.2354232 28.3242126,11.1778128 28.2073089,12.6338242 C28.1176179,13.7509074 28.9039741,12.7564793 29.2663802,13.0610906 C29.4177559,13.2160101 29.8874847,12.3693782 29.8635181,11.4958999 C29.8532123,11.120298 29.3193577,11.2169714 29.0935237,10.9446835 C28.7065808,10.4781468 28.4036783,10.6788178 28.0416719,10.8606733 C27.9714893,10.8959299 27.0784485,11.05662 27.4243909,11.7424646 Z" id="path-29"></path>
        <path d="M17.4345842,14.7363657 C17.4345842,14.9635136 17.8558532,14.4761827 17.8011224,15.1470908 C17.7591318,15.6618259 18.1272798,15.2036084 18.2969472,15.3439687 C18.3678167,15.4153533 18.5877294,15.0252381 18.5765089,14.6227524 C18.5716841,14.4496807 18.3217497,14.4942263 18.2160211,14.3687602 C18.0348663,14.1537871 17.8930566,14.2462533 17.7235763,14.3300495 C17.6907189,14.3462952 17.2726245,14.4203388 17.4345842,14.7363657 Z" id="path-31"></path>
        <path d="M5.48620161,5.02209353 C5.48620161,6.13110397 8.58401225,4.33774471 7.75482984,7.46762175 C7.45192867,8.61096897 6.05959441,10.7371739 6.87490044,11.4224589 C6.87047114,11.4294366 8.70173063,12.262013 9.41062753,10.4700441 C9.54107448,10.1402967 9.39863222,9.26894998 11.172961,10.1941967 C11.9875964,10.6189989 12.7824078,9.14167666 11.9875964,7.66716494 C11.4225043,6.61882197 12.0578364,5.55768379 12.9816455,5.7055992 C14.8176437,5.99956953 13.7227924,3.22004253 12.2872229,2.72831078 C12.2931206,2.72202785 9.91868698,3.05971013 9.41062753,2.44714329 C8.54012092,1.39757423 7.68930722,2.62920433 6.87490044,3.03832511 C6.71701035,3.11764188 4.70793391,3.47914692 5.48620161,5.02209353 Z" id="path-33"></path>
        <path d="M25.8269722,16.9455066 C25.9140654,19.0906524 24.8330867,17.0569376 24.2040679,19.4312664 C23.9742866,20.2986111 25.4153488,20.7624659 26.033841,21.2823239 C26.030481,21.2876172 27.4196768,21.9192108 27.957447,20.5598208 C28.0564042,20.309674 27.9483473,19.6486692 29.2943555,20.3505626 C29.9123389,20.6728181 31.1816403,20.280144 30.5786953,19.1615775 C30.1500157,18.3663031 30.1441251,17.2022812 30.8449279,17.31449 C32.2377186,17.5374963 32.2706002,14.5270303 30.3510196,14.5270303 C30.3520896,14.5258904 29.1675623,14.8258756 28.9877506,15.0100725 C28.4156836,15.596091 28.2506897,16.6082198 27.957447,16.2546573 C27.2970795,15.4584528 27.2741201,14.6997129 26.65631,15.0100725 C26.5365344,15.0702423 25.2365773,15.7750253 25.8269722,16.9455066 Z" id="path-35"></path>
        <path d="M21.4038953,21.3036148 C21.4909885,23.4487605 20.4100098,21.4150457 19.7809909,23.7893745 C19.5512097,24.6567193 20.9922719,25.120574 21.6107641,25.640432 C21.607404,25.6457253 22.9965999,26.2773189 23.53437,24.9179289 C23.6333273,24.6677821 23.5252704,24.0067774 24.8712785,24.7086707 C25.489262,25.0309262 26.7585634,24.6382522 26.1556184,23.5196856 C25.7269388,22.7244113 25.7210482,21.5603893 26.421851,21.6725981 C27.8146417,21.8956044 27.8475233,18.8851384 25.9279427,18.8851384 C25.9290126,18.8839985 24.7444854,19.1839837 24.5646737,19.3681806 C23.9926067,19.9541991 23.8276128,20.9663279 23.53437,20.6127654 C22.8740026,19.8165609 22.8510432,19.057821 22.2332331,19.3681806 C22.1134575,19.4283504 20.8135004,20.1331334 21.4038953,21.3036148 Z" id="path-37"></path>
        <path d="M11.9842912,9.77680294 C12.1316797,13.4070495 9.95224539,9.66896462 8.88775192,13.6870596 C8.49889139,15.1548737 10.937612,15.9398586 11.9842912,16.8196184 C11.9786049,16.8285763 14.3295517,17.8974269 15.2396242,15.5969209 C15.4070903,15.1735955 15.2242248,14.054972 17.5020848,15.2427916 C18.5479029,15.788147 20.6959515,15.1236217 19.675583,13.2306629 C18.9501252,11.884814 18.9401566,9.91493069 20.1261304,10.1048225 C22.4831608,10.4822178 22.5388066,5.38758299 19.2902856,5.38758299 C19.2920963,5.38565403 16.6287124,6.4833174 17.5020848,8.31125947 C18.0816682,9.52430992 15.7358812,8.90959606 15.2396242,8.31125947 C14.1220793,6.96383653 14.4121512,6.99233764 13.3666265,7.51756151 C13.1639292,7.61938734 10.9851613,7.79598837 11.9842912,9.77680294 Z" id="path-39"></path>
    </defs>
    <g id="Design" stroke="none" stroke-width="1" fill="none" fill-rule="evenodd">
        <g id="Desktop-HD" transform="translate(-21.000000, -21.000000)">
            <g id="header" transform="translate(0.000000, -67.000000)">
                <g id="Logo-2" transform="translate(17.000000, 86.000000)">
                    <g id="The-R" transform="translate(9.135484, 4.645161)">
                        <mask id="mask-2" fill="white">
                            <use xlink:href="#path-1"></use>
                        </mask>
                        <use id="Letter-Outline" fill="#323948" xlink:href="#path-1"></use>
                        <g id="Blobs" mask="url(#mask-2)">
                            <g transform="translate(-9.183327, 1.440490)">
                                <g>
                                    <mask id="mask-4" fill="white">
                                        <use xlink:href="#path-3"></use>
                                    </mask>
                                    <use id="Mask" fill-opacity="0.2" fill="#5996D7" transform="translate(32.443336, 23.163365) rotate(216.000000) translate(-32.443336, -23.163365) " xlink:href="#path-3"></use>
                                    <mask id="mask-6" fill="white">
                                        <use xlink:href="#path-5"></use>
                                    </mask>
                                    <use id="Mask" fill-opacity="0.5" fill="#5996D7" transform="translate(13.386007, 5.914650) rotate(-36.000000) translate(-13.386007, -5.914650) " xlink:href="#path-5"></use>
                                    <path d="M10.9209175,38.7292708 C9.31802897,38.752949 7.26816431,39.8947089 6.11225186,38.8003053 C5.28199976,38.0142329 7.52234622,36.9731205 7.9560342,35.922156 C8.14973585,35.452755 7.75843431,34.8809472 7.9271333,34.4022678 C8.98025167,31.4140691 8.8496212,35.5820142 9.71787773,35.4651256 C10.1892283,35.4016702 10.5629677,34.4126717 10.9256814,34.7159775 C13.0804979,36.517862 8.66082984,37.4731019 13.1464459,36.6539366 C15.1696544,36.2844573 15.1956761,33.0393103 16.4945043,33.9948364 C20.1934229,36.7160685 13.7032825,40.3723808 10.7538639,39.0720827 L10.9209175,38.7292708 Z" id="Path-3" fill-opacity="0.5" fill="#5996D7"></path>
                                    <mask id="mask-8" fill="white">
                                        <use xlink:href="#path-7"></use>
                                    </mask>
                                    <use id="Mask" fill-opacity="0.2" fill="#5996D7" transform="translate(15.287271, 25.065636) rotate(216.000000) translate(-15.287271, -25.065636) " xlink:href="#path-7"></use>
                                    <mask id="mask-10" fill="white">
                                        <use xlink:href="#path-9"></use>
                                    </mask>
                                    <use id="Mask" fill-opacity="0.2" fill="#5996D7" transform="translate(35.587289, 25.954953) rotate(216.000000) translate(-35.587289, -25.954953) " xlink:href="#path-9"></use>
                                    <mask id="mask-12" fill="white">
                                        <use xlink:href="#path-11"></use>
                                    </mask>
                                    <use id="Mask" fill-opacity="0.2" fill="#5996D7" transform="translate(34.587352, 8.310269) rotate(178.000000) translate(-34.587352, -8.310269) " xlink:href="#path-11"></use>
                                    <mask id="mask-14" fill="white">
                                        <use xlink:href="#path-13"></use>
                                    </mask>
                                    <use id="Mask" fill-opacity="0.5" fill="#5996D7" transform="translate(8.952692, 12.320394) rotate(-36.000000) translate(-8.952692, -12.320394) " xlink:href="#path-13"></use>
                                    <mask id="mask-16" fill="white">
                                        <use xlink:href="#path-15"></use>
                                    </mask>
                                    <use id="Mask" fill-opacity="0.5" fill="#5996D7" transform="translate(21.936720, 18.760230) rotate(-62.000000) translate(-21.936720, -18.760230) " xlink:href="#path-15"></use>
                                    <mask id="mask-18" fill="white">
                                        <use xlink:href="#path-17"></use>
                                    </mask>
                                    <use id="Mask" fill="#5996D7" transform="translate(11.147560, 17.086239) rotate(49.000000) translate(-11.147560, -17.086239) " xlink:href="#path-17"></use>
                                    <mask id="mask-20" fill="white">
                                        <use xlink:href="#path-19"></use>
                                    </mask>
                                    <use id="Mask" fill-opacity="0.5" fill="#5996D7" transform="translate(28.604723, 11.918690) rotate(-36.000000) translate(-28.604723, -11.918690) " xlink:href="#path-19"></use>
                                    <mask id="mask-22" fill="white">
                                        <use xlink:href="#path-21"></use>
                                    </mask>
                                    <use id="Mask" fill-opacity="0.5" fill="#E0D3D3" transform="translate(17.987179, 14.817568) rotate(-300.000000) translate(-17.987179, -14.817568) " xlink:href="#path-21"></use>
                                    <mask id="mask-24" fill="white">
                                        <use xlink:href="#path-23"></use>
                                    </mask>
                                    <use id="Mask" fill-opacity="0.5" fill="#5996D7" transform="translate(8.952692, 12.320394) rotate(-36.000000) translate(-8.952692, -12.320394) " xlink:href="#path-23"></use>
                                    <mask id="mask-26" fill="white">
                                        <use xlink:href="#path-25"></use>
                                    </mask>
                                    <use id="Mask" fill-opacity="0.5" fill="#5996D7" transform="translate(32.413701, 36.602298) rotate(-36.000000) translate(-32.413701, -36.602298) " xlink:href="#path-25"></use>
                                    <mask id="mask-28" fill="white">
                                        <use xlink:href="#path-27"></use>
                                    </mask>
                                    <use id="Mask" fill-opacity="0.5" fill="#5996D7" transform="translate(36.836778, 9.582028) rotate(216.000000) translate(-36.836778, -9.582028) " xlink:href="#path-27"></use>
                                    <mask id="mask-30" fill="white">
                                        <use xlink:href="#path-29"></use>
                                    </mask>
                                    <use id="Mask" fill-opacity="0.5" fill="#5996D7" transform="translate(28.604723, 11.918690) rotate(-36.000000) translate(-28.604723, -11.918690) " xlink:href="#path-29"></use>
                                    <path d="M11.4140437,32.8480936 C11.0636851,31.606992 10.1088812,30.3884451 10.3629678,29.1247888 C10.5481315,28.2039092 11.9213856,28.011115 12.5315959,27.2901388 C12.8448296,26.9200468 12.7261801,26.2947707 13.0579043,25.9406658 C13.2988459,25.6834685 13.7834443,25.4439973 14.0786035,25.6387587 C15.1140573,26.322005 15.4724438,27.9130746 16.6511529,28.3116782 C17.9276499,28.7433506 19.5592161,27.1213188 20.6749574,27.8694449 C21.5362814,28.4469793 21.5275301,30.5155638 20.5825067,30.9477268 L20.404209,31.3539568 C19.5762801,31.732572 18.4920309,31.6188185 17.8094275,32.215867 C16.3088901,33.5283327 17.4707549,38.7677499 13.7909059,36.545155 C12.9202719,36.0193001 12.1279845,34.7869463 11.4140437,32.8480936 Z" id="Path-5" fill-opacity="0.9" fill="#FFFFFF"></path>
                                    <path d="M30.1591597,35.2278244 C29.6201077,33.4201831 31.6565998,32.0967967 32.5078263,31.7219852 C33.9774928,31.0748625 32.923742,29.1556835 33.2676857,28.5256233 C33.4442391,28.2022003 33.3773626,27.6557722 33.5643382,27.3463204 C33.7001444,27.121556 33.9732872,26.9122824 34.1396529,27.0824841 C34.7232841,27.6795722 34.9252878,29.0700062 35.5896645,29.4183453 C36.3091591,29.7955834 37.2287876,28.3780917 37.8576727,29.0318782 C38.343156,29.5365848 38.3382233,31.3443185 37.8055631,31.7219852 L37.705066,32.0769891 C37.2384057,32.4078605 36.6272712,32.3084515 36.2425233,32.8302114 C35.3967489,33.9771737 36.0516313,38.5558943 33.9774928,36.6135712 C33.2413966,35.9242553 29.9434886,37.7074422 30.1591597,35.2278244 Z" id="Path-5" fill-opacity="0.9" fill="#FFFFFF"></path>
                                    <path d="M35.1719803,39.5859325 C34.6329282,37.7782912 36.2002882,38.7055907 37.8165594,36.9212902 C38.9585847,35.6605386 35.6949831,34.723605 37.0378317,33.8386294 C38.3806803,32.9536538 40.3714303,33.9006534 40.5912467,34.5584624 C40.9167328,35.532492 42.0822326,37.2474621 40.1883418,37.5667347 C38.294451,37.8860073 38.7997599,40.6631352 37.8165594,39.5859325 C37.1240944,38.8272622 34.9563091,42.0655503 35.1719803,39.5859325 Z" id="Path-5" fill-opacity="0.9" fill="#FFFFFF"></path>
                                    <path d="M7.69382021,15.4897397 C7.66056131,13.9966128 9.33281122,10.7325096 10.3548571,13.7368331 C10.5391735,14.2786346 9.87233865,14.9338689 10.0771751,15.4897397 C10.4561083,16.5180621 11.6955554,17.1215013 11.9907265,18.1761409 C12.6229461,20.4350475 11.4248796,21.6136195 9.33281122,20.7223153 C8.04382728,20.1731569 9.32997832,19.5470763 9.41800841,19.395542 C9.82645244,18.6924501 8.87796682,17.7207282 8.50146776,18.2011665 C7.71240802,19.2080602 6.12309375,19.9803568 7.02096978,16.9331124 L7.69382021,15.4897397 Z" id="Path-6" fill="#FFFFFF"></path>
                                    <path d="M5.9527239,30.0018702 C5.919465,28.5087433 7.59171491,25.2446401 8.61376081,28.2489637 C8.79807718,28.7907652 8.13124234,29.4459995 8.33607876,30.0018702 C8.71501198,31.0301926 9.95445913,31.6336318 10.2496302,32.6882715 C10.8818498,34.947178 9.68378334,36.12575 7.59171491,35.2344458 C6.30273097,34.6852875 7.58888201,34.0592068 7.6769121,33.9076725 C8.08535613,33.2045806 7.1368705,32.2328587 6.76037145,32.713297 C5.97131171,33.7201907 4.38199743,34.4924873 5.27987347,31.4452429 L5.9527239,30.0018702 Z" id="Path-6" fill="#FFFFFF"></path>
                                    <path d="M9.06141435,26.3983684 C10.0491064,25.319933 10.8575769,23.2840041 12.004225,22.8760581 C13.0400743,22.5075311 14.293907,22.8054929 15.4689987,23.4865793 C16.2612857,24.0221023 17.0220252,24.2898638 17.7512172,24.2898638 C19.2113675,24.2898638 18.8981596,28.34974 17.3289782,29.5459482 C16.175703,30.4251055 15.1250279,28.9509512 14.1101798,27.8788277 C13.7224123,27.4691755 11.9150986,26.8352301 10.7219459,27.8788277 C10.4043501,28.1566146 11.3695939,28.8657308 11.0176244,29.0998702 C10.6228571,29.3624799 10.1260691,28.3545165 9.69786941,28.5600705 C9.22533573,28.7869068 9.17510924,29.4923508 9.1258856,30.0079854 C9.0939659,30.3423552 9.72198343,30.7319724 9.46904413,30.9570941 C9.10946309,31.2771292 8.15468851,31.4533356 8.01590036,30.9958971 C7.71965912,30.0195013 8.90874708,28.9496238 8.56803465,27.9874135 C8.42478602,27.5828632 7.17428065,26.5543626 8.38129035,26.5543626 L9.06141435,26.3983684 Z" id="Path-4" fill-opacity="0.5" fill="#5996D7"></path>
                                    <mask id="mask-32" fill="white">
                                        <use xlink:href="#path-31"></use>
                                    </mask>
                                    <use id="Mask" fill-opacity="0.5" fill="#E0D3D3" transform="translate(17.987179, 14.817568) rotate(-300.000000) translate(-17.987179, -14.817568) " xlink:href="#path-31"></use>
                                    <mask id="mask-34" fill="white">
                                        <use xlink:href="#path-33"></use>
                                    </mask>
                                    <use id="Mask" fill-opacity="0.9" fill="#FFFFFF" xlink:href="#path-33"></use>
                                    <path d="M7.75826105,3.56726978 C7.57037829,3.75247467 7.94164912,4.63166211 7.14820065,5.2989294 C6.687472,5.68638891 7.14182958,6.92643246 7.58071478,7.29532636 C7.57833046,7.29908251 8.09551077,7.69450616 8.47711516,6.72987619 C8.54733571,6.55237077 8.96306832,6.92735821 9.0968472,6.98363923 C9.2962552,7.06753054 9.2962552,6.65231153 9.18869308,6.37791661 C8.95275397,5.77602725 10.3464651,5.21930545 10.8437582,5.2989294 C11.8320895,5.45717578 11.2669851,2.8799056 10.4942076,2.6152028 C10.4973824,2.61182065 9.3696766,2.46739582 9.25814989,2.8799056 C9.0453553,3.66698029 8.14853784,2.94034405 7.75826105,3.56726978 Z" id="blob" fill-opacity="0.5" fill="#FFFFFF"></path>
                                    <path d="M34.4147633,13.5383325 C33.9889193,13.9331254 34.8304199,15.8072491 33.0320363,17.2296323 C31.9877758,18.055562 33.017596,20.6989062 34.0123474,21.4852605 C34.0069432,21.4932674 35.1791537,22.3361739 36.0440758,20.2799162 C36.2032335,19.901536 37.1455086,20.7008796 37.448724,20.8208513 C37.9006904,20.9996786 37.9006904,20.1145752 37.6568964,19.5296601 C37.1221307,18.24664 40.2810343,17.0599016 41.4081697,17.2296323 C43.6482634,17.5669589 42.367431,12.0731097 40.6158988,11.5088548 C40.6230946,11.5016453 38.067103,11.1937815 37.8143232,12.0731097 C37.3320154,13.7508809 35.2993417,12.2019436 34.4147633,13.5383325 Z" id="blob" fill-opacity="0.9" fill="#FFFFFF" transform="translate(37.599595, 16.556947) rotate(97.000000) translate(-37.599595, -16.556947) "></path>
                                    <mask id="mask-36" fill="white">
                                        <use xlink:href="#path-35"></use>
                                    </mask>
                                    <use id="Mask" fill-opacity="0.9" fill="#FFFFFF" xlink:href="#path-35"></use>
                                    <mask id="mask-38" fill="white">
                                        <use xlink:href="#path-37"></use>
                                    </mask>
                                    <use id="Mask" fill-opacity="0.9" fill="#FFFFFF" xlink:href="#path-37"></use>
                                    <mask id="mask-40" fill="white">
                                        <use xlink:href="#path-39"></use>
                                    </mask>
                                    <use id="Mask" fill-opacity="0.9" fill="#FFFFFF" xlink:href="#path-39"></use>
                                    <path d="M13.4822798,14.0535888 C13.294397,14.2387937 13.6656679,15.1179811 12.8722194,15.7852484 C12.4114907,16.1727079 12.8658483,17.4127515 13.3047335,17.7816454 C13.3023492,17.7854015 13.8195295,18.1808252 14.2011339,17.2161952 C14.2713544,17.0386898 14.687087,17.4136772 14.8208659,17.4699583 C15.0202739,17.5538496 15.0202739,17.1386306 14.9127118,16.8642356 C14.6767727,16.2623463 16.0704838,15.7056245 16.5677769,15.7852484 C17.5561082,15.9434948 16.9910039,13.3662246 16.2182263,13.1015218 C16.2214011,13.0981397 15.0936953,12.9537148 14.9821686,13.3662246 C14.769374,14.1532993 13.8725566,13.4266631 13.4822798,14.0535888 Z" id="blob" fill-opacity="0.5" fill="#FFFFFF"></path>
                                    <path d="M11.5466754,30.2258711 C11.0404873,29.4211732 10.9139403,28.8911154 11.1670344,28.6356976 C11.4201284,28.3802798 11.737715,28.425546 12.1197942,28.7714961 C13.4257867,28.784835 14.177239,29.0537185 14.3741509,29.5781466 C14.5710629,30.1025747 14.2062229,30.6748555 13.279631,31.2949892 C13.2711831,31.9186224 13.211979,32.3013434 13.1020187,32.443152 C12.9370784,32.6558649 12.644183,34.0651258 13.1020187,33.6717287 C13.5598545,33.2783316 14.5373399,32.1841078 15.919089,33.0248411 C15.9797697,33.1117978 16.5142548,33.2455421 15.919089,34.1527672 C15.884164,34.5333072 15.5377996,35.1152246 16.607697,35.4332289 C17.6775943,35.7512331 17.9871795,35.8626868 17.9871795,36.6089317 C17.7051016,37.1918381 17.3705848,37.9806864 16.2130145,38.417676 C16.2417581,38.8081061 16.2866762,39.7446972 15.919089,39.9320762 C15.5515017,40.1194553 14.7675971,40.0888721 14.7675971,39.9320762 C14.7458592,39.9469874 14.8815409,40.7189466 14.3741509,40.7189466 C13.866761,40.7189466 13.4572432,40.5638244 13.279631,39.4907502 C12.7157842,38.3500431 11.8288563,37.0730049 10.5246838,36.8409683 C10.1683261,36.8849411 10.0370744,36.783758 9.9816478,37.5474247 C9.9816478,38.1284291 9.36907101,38.8041501 8.66943951,38.8041501 C8.2030185,38.8041501 7.83010835,38.2619706 7.55070905,37.1776116 C6.95095246,36.089671 6.59644261,35.5082101 6.48717949,35.4332289 C6.7016888,34.1527672 8.89691504,34.0578224 9.71079943,32.443152 C10.365763,32.2470312 11.0194215,32.5154764 11.0194215,31.7723796 C10.8823514,31.3944552 10.4753504,30.8705343 11.1670344,30.8705343 C11.628157,30.8705343 11.754704,30.6556466 11.5466754,30.2258711 Z" id="Path" fill-opacity="0.5" fill="#FFFFFF"></path>
                                    <path d="M7.89729232,23.1511212 C7.35597002,23.3722051 6.99788274,22.3622435 6.4420842,22.1793253 C5.21219137,21.7745568 5.80515276,20.2326042 6.90148153,19.8497376 C8.24886704,19.7869957 9.07790668,22.6689411 7.89729232,23.1511212 Z" id="Path-2" fill-opacity="0.5" fill="#5996D7"></path>
                                    <path d="M11.5261884,2.08489818 C11.1843228,2.08489818 11.0329329,1.88911593 10.7144625,2.19410978 C10.4893741,2.40967323 10.7111873,3.03076059 10.9368051,3.22039795 C10.9355794,3.22232888 11.298308,3.42983424 11.7162036,3.06016889 C11.7999502,2.98608769 11.8187133,2.88984319 11.7634188,2.74878494 C11.6421296,2.43937156 11.868054,2.08489818 11.5261884,2.08489818 Z" id="blob" fill="#707070"></path>
                                    <path d="M11.2815707,1.19855702 C11.1590284,1.14448112 10.9893949,1.14448112 10.9374695,1.24091636 C10.8707739,1.36478274 10.9360811,1.56542386 11.0317234,1.63897754 C11.0312038,1.63972647 11.1849692,1.72021052 11.3621206,1.5768303 C11.3976219,1.54809681 11.404113,1.25263291 11.2815707,1.19855702 Z" id="blob" fill="#707070"></path>
                                    <path d="M12.5702725,1.47090013 C12.5090014,1.44386218 12.4241846,1.44386218 12.3982219,1.4920798 C12.3648741,1.55401299 12.3975277,1.65433355 12.4453489,1.69111039 C12.4450891,1.69148486 12.5219718,1.73172688 12.6105475,1.66003677 C12.6282981,1.64567003 12.6315437,1.49793808 12.5702725,1.47090013 Z" id="blob" fill="#707070"></path>
                                    <path d="M39.5727199,4.20504062 C40.6981576,3.88170363 41.6065723,3.92100865 42.1587736,6.6951151 C42.7109748,9.46922155 40.1650096,8.41003803 40.1650096,9.23336542 C40.1650096,10.0566928 34.5364036,10.1941424 36.8103234,8.23171892 C39.0842431,6.26929547 38.0239325,4.65000554 39.5727199,4.20504062 Z" id="Path-7" fill-opacity="0.9" fill="#FFFFFF"></path>
                                </g>
                            </g>
                        </g>
                    </g>
                    <g id="Outer-Blobs" transform="translate(4.335484, 2.167742)" fill="#FFFFFF">
                        <path d="M21.0288,11.8477384 C21.1820733,11.8477384 21.0437843,11.7605652 21.1680368,11.5879798 C21.2922893,11.4153944 21.1229421,11.3264516 20.9696689,11.3264516 C20.8163957,11.3264516 20.6270218,11.4681294 20.7512743,11.6407148 C20.8755268,11.8133002 20.8755268,11.8477384 21.0288,11.8477384 Z" id="Path" fill-opacity="0.9"></path>
                        <path d="M2.29880691,11.6679535 C2.45208013,11.6679535 2.31379114,11.5807803 2.43804364,11.4081949 C2.56229614,11.2356095 2.39294897,11.1466667 2.23967575,11.1466667 C2.08640253,11.1466667 1.89702869,11.2883444 2.02128119,11.4609298 C2.14553369,11.6335152 2.14553369,11.6679535 2.29880691,11.6679535 Z" id="Path" fill-opacity="0.9"></path>
                        <path d="M21.5544549,2.75628516 C21.6070226,2.54048949 21.4313245,2.49992129 21.2889485,2.29720905 C21.1465726,2.09449681 21.4418677,1.97763441 21.6174974,1.97763441 C21.793127,1.97763441 22.0696597,2.18267387 22.0919463,2.44650051 C22.1267162,2.85810351 21.9067324,3.00998943 21.8801581,3.01275676 C21.8535839,3.01552409 21.5111211,2.93417485 21.5544549,2.75628516 Z" id="Path" fill-opacity="0.9"></path>
                        <path d="M13.9654631,2.1879666 C13.9520157,1.15706676 12.497571,2.05954551 12.8386108,0.643367391 C13.1796506,-0.772810726 13.3560111,0.629856388 14.2119808,0.366918196 C15.0679506,0.103980003 15.389842,0.68514491 15.450605,1.4044517 C15.545403,2.52666147 15.1212448,2.48718041 15.0487917,2.49472536 C14.9763387,2.5022703 13.9719658,2.68647755 13.9654631,2.1879666 Z" id="Path" fill-opacity="0.9"></path>
                        <path d="M24.8338211,21.2636498 C24.8288889,20.8855374 24.2954291,21.2165477 24.4205153,20.6971233 C24.5456015,20.1776988 24.6102869,20.6921677 24.9242386,20.5957275 C25.2381904,20.4992873 25.3562534,20.7124464 25.37854,20.976273 C25.4133099,21.387876 25.2577376,21.3733952 25.2311633,21.3761625 C25.204589,21.3789298 24.8362062,21.4464932 24.8338211,21.2636498 Z" id="Path" fill-opacity="0.9"></path>
                        <path d="M13.5891949,32.0806603 C13.5842627,31.7025479 13.0508029,32.0335581 13.1758891,31.5141337 C13.3009753,30.9947093 13.3656607,31.5091782 13.6796124,31.4127379 C13.9935642,31.3162977 14.1116272,31.5294568 14.1339138,31.7932835 C14.1686837,32.2048865 14.0131114,32.1904056 13.9865371,32.193173 C13.9599628,32.1959403 13.59158,32.2635037 13.5891949,32.0806603 Z" id="Path" fill-opacity="0.9"></path>
                        <path d="M18.8200412,8.77530499 C18.3321682,8.77530499 18.3321682,8.38048907 17.936669,7.89345895 C17.5411698,7.40642883 18.3321682,7.0116129 18.8200412,7.0116129 C19.3079142,7.0116129 20.0989126,7.40642883 19.7034134,7.89345895 C19.3079142,8.38048907 19.3079142,8.77530499 18.8200412,8.77530499 Z" id="Oval" fill-opacity="0.9"></path>
                        <path d="M4.71931011,11.032122 C4.1188335,11.032122 3.9116578,10.5082702 3.42487532,9.90883098 C2.93809284,9.30939177 4.87018048,9.73975346 3.95325245,7.89357537 C3.03632441,6.04739727 6.29335169,9.34730207 5.80656921,9.94674128 C5.31978673,10.5461805 5.31978673,11.032122 4.71931011,11.032122 Z" id="Oval" transform="translate(4.600684, 9.185280) rotate(49.000000) translate(-4.600684, -9.185280) "></path>
                        <path d="M2.56374401,30.7447534 C1.96326739,30.7447534 1.75609169,30.2209016 1.26930921,29.6214624 C0.782526734,29.0220232 1.67514251,28.4658352 2.27561913,28.4658352 C2.87609575,28.4658352 4.13778558,29.0599335 3.6510031,29.6593727 C3.16422062,30.2588119 3.16422062,30.7447534 2.56374401,30.7447534 Z" id="Oval" transform="translate(2.444853, 29.605294) rotate(49.000000) translate(-2.444853, -29.605294) "></path>
                        <path d="M0.8551486,17.3360266 C0.576582918,17.3360266 0.480472532,17.0930077 0.254650428,16.8149233 C0.0288283251,16.5368389 0.442919592,16.2788191 0.721485273,16.2788191 C1.00005095,16.2788191 1.58535849,16.5544258 1.35953638,16.8325102 C1.13371428,17.1105946 1.13371428,17.3360266 0.8551486,17.3360266 Z" id="Oval" transform="translate(0.799994, 16.807423) rotate(49.000000) translate(-0.799994, -16.807423) "></path>
                        <path d="M3.67979112,6.89804926 C3.47842553,6.89804926 3.40895063,6.72237927 3.24571156,6.52136156 C3.0824725,6.32034386 3.38180489,6.13383016 3.58317048,6.13383016 C3.78453607,6.13383016 4.20763484,6.33305681 4.04439577,6.53407451 C3.88115671,6.73509222 3.88115671,6.89804926 3.67979112,6.89804926 Z" id="Oval" transform="translate(3.639922, 6.515940) rotate(49.000000) translate(-3.639922, -6.515940) "></path>
                    </g>
                </g>
            </g>
        </g>
    </g>
</svg>