<?xml version="1.0" encoding="UTF-8"?>
<svg width="383px" height="167px" viewBox="0 0 383 167" version="1.1" xmlns="http://www.w3.org/2000/svg" xmlns:xlink="http://www.w3.org/1999/xlink">
  <style>
  #path-1 {
    animation: slideDown 7s forwards;
    transform: translateY(-15rem);
    will-change: transform;
    backface-visibility: hidden;
  }

  @keyframes slideDown {
    0% {
      transform: translateY(-15rem);
    }
    100% {
      transform: translateY(0rem);
    }
  }
  </style>
    <!-- Generator: Sketch 50.2 (55047) - http://www.bohemiancoding.com/sketch -->
    <title>hero-unit-name</title>
    <desc>Created with Sketch.</desc>
    <defs>
        <path d="M0,147.23419 C7.44450645,166.150087 13.1354198,171.352638 17.0727402,162.841841 C22.9787207,150.075647 46.229093,110.720147 54.2400528,132.235549 C59.5806926,146.57915 62.0958094,137.233326 61.7854032,104.198075 C62.1902296,128.990446 66.0136556,135.188539 73.2556813,122.792354 C84.1187198,104.198075 87.6869349,100.197983 93.6628268,112.417939 C97.6467547,120.564577 103.776652,114.603145 112.052518,94.5336426 C117.641673,110.024409 120.436251,113.245886 120.436251,104.198075 C120.436251,90.6263584 117.918774,47.1494191 131.221393,67.2609115 C144.524012,87.3724039 133.182972,125.086763 146.066011,108.349611 C146.76543,92.4450244 150.011607,84.6069252 154.172571,99.030342 C154.869437,100.001013 159.982691,109.662347 161.638185,87.7959183 C161.318904,86.9953343 161.235033,74.2260185 166.057599,74.2260185 C170.880165,74.2260185 167.202244,84.3734215 171.371,82.1965953 C175.539755,80.0197691 176.47377,71.5021266 176.47377,68.7162846 C176.47377,65.9304427 183.276828,79.5984581 185.43364,67.2609115 C187.590451,54.9233649 189.260241,53.8015942 190.502099,56.3262932 C191.743958,58.8509922 203.976058,82.4034254 205.183522,72.1561669 C205.988498,65.3246612 208.314561,63.6929094 212.161711,67.2609115 C213.765861,67.6162052 214.564764,67.8785023 214.558419,68.0478029 C214.068441,81.1222386 217.742052,82.4573701 219.696986,75.3199706 C221.570418,68.4801323 225.641678,60.2570498 228.338442,70.2267146 C228.894405,72.2820531 229.582037,78.1384543 230.401338,87.7959183 C228.642825,102.498073 231.797305,104.466175 239.864778,93.7002258 C247.932251,82.9342763 251.891965,85.4980515 251.743921,101.391551 C251.52789,121.402509 257.110693,123.721862 268.49233,108.349611 C275.262031,101.391551 261.969476,94.5336426 268.49233,94.5336426 C275.015184,94.5336426 276.026718,109.613143 281.57902,111.015541 C287.131322,112.417939 287.131322,84.0218928 293.712408,97.3835474 C293.569347,99.7218431 305.630294,106.310589 307.493611,102.670466 C309.356929,99.030342 310.452842,91.981432 312.872873,100.165522 C313.264536,108.605379 314.574855,115.712097 319.142133,109.191281 C323.70941,102.670466 318.964876,88.3920535 325.478262,96.2950642 C325.849758,96.7355523 331.67906,104.553865 329.45433,91.6749387 C329.645916,91.3180797 334.057559,101.391551 339.89549,99.030342 C340.23249,99.1571753 347.414301,99.2827964 347.486649,99.030342 C347.970125,94.6638767 350.452874,79.9062543 355.774289,84.9394939 C361.095703,89.9727336 359.900548,109.827601 369.528662,97.3835474 C372.776598,97.3835474 370.349668,106.525232 374.146887,104.198075 C376.678367,102.646637 379.512881,99.4251596 382.65043,94.5336426 L382.65043,1.13686838e-13 L0,1.13686838e-13 L0,147.23419 Z" id="path-1"></path>
        <path d="M29.996,17.08 L29.996,2.312 C29.996,1.75971525 30.4437153,1.312 30.996,1.312 L40.148,1.312 C40.7002847,1.312 41.148,1.75971525 41.148,2.312 L41.148,45 C41.148,45.5522847 40.7002847,46 40.148,46 L30.996,46 C30.4437153,46 29.996,45.5522847 29.996,45 L29.996,29.016 C29.996,28.4637153 29.5482847,28.016 28.996,28.016 L12.836,28.016 C12.2837153,28.016 11.836,28.4637153 11.836,29.016 L11.836,45 C11.836,45.5522847 11.3882847,46 10.836,46 L1.748,46 C1.19571525,46 0.748,45.5522847 0.748,45 L0.748,2.312 C0.748,1.75971525 1.19571525,1.312 1.748,1.312 L10.836,1.312 C11.3882847,1.312 11.836,1.75971525 11.836,2.312 L11.836,17.08 C11.836,17.6322847 12.2837153,18.08 12.836,18.08 L28.996,18.08 C29.5482847,18.08 29.996,17.6322847 29.996,17.08 Z M52.372,11.76 C49.1837697,11.76 46.572,9.12426911 46.572,5.896 C46.572,2.67565993 49.1755457,0.096 52.372,0.096 C55.6206638,0.096 58.236,2.66378466 58.236,5.896 C58.236,9.13628475 55.6122847,11.76 52.372,11.76 Z M47.34,44 L47.34,13.088 L57.468,13.088 L57.468,46 L49.34,46 C48.2354305,46 47.34,45.1045695 47.34,44 Z M62.508,40.456 C62.508,37.0996615 65.2478368,34.336 68.564,34.336 C72.3661162,34.336 75.26,37.4066095 75.26,41.864 C75.26,46.8431939 72.6215459,51.4788111 68.246747,54.5835071 L68.246747,54.5835071 C67.8794849,54.8441448 67.3833124,54.8271347 67.0347622,54.5419573 L63.5147622,51.6619573 C63.0873174,51.3122297 63.0243151,50.682207 63.3740427,50.2547622 C63.4580605,50.1520738 63.5616733,50.0671316 63.6788448,50.0048843 C65.13067,49.2336021 66.6896088,47.6034093 67.5377426,46.0548145 C64.665955,45.8903044 62.508,43.5342329 62.508,40.456 Z M96.492,44 L96.492,3.312 C96.492,2.2074305 97.3874305,1.312 98.492,1.312 L105.58,1.312 C106.684569,1.312 107.58,2.2074305 107.58,3.312 L107.58,44 C107.58,45.1045695 106.684569,46 105.58,46 L98.492,46 C97.3874305,46 96.492,45.1045695 96.492,44 Z M115.261863,21.1881665 C115.241263,21.0806429 115.202782,20.8791978 115.148894,20.5961473 C115.059115,20.1245689 114.959082,19.5971014 114.851359,19.0265178 C114.543562,17.3961959 114.235758,15.7468127 113.948413,14.1804343 C113.902637,13.9307373 113.902637,13.9307373 113.856924,13.6806914 C113.060472,9.32107476 112.62,6.69595664 112.62,6.088 C112.62,3.10371525 115.051715,0.672 118.036,0.672 C120.97615,0.672 123.452,3.123337 123.452,6.088 C123.452,6.69595664 123.011528,9.32107476 122.215076,13.6806914 C122.169363,13.9307373 122.169363,13.9307373 122.123587,14.1804343 C121.836242,15.7468127 121.528438,17.3961959 121.220641,19.0265178 C121.112918,19.5971014 121.012885,20.1245689 120.923106,20.5961473 C120.869218,20.8791978 120.830737,21.0806429 120.810137,21.1881665 L120.810137,21.1881665 C120.719868,21.6593257 120.307729,22 119.828,22 L116.244,22 C115.764271,22 115.352132,21.6593257 115.261863,21.1881665 Z M166.676,12.32 C173.098405,12.32 176.764,15.9479995 176.764,22.664 L176.764,44 C176.764,45.1045695 175.868569,46 174.764,46 L168.572,46 C167.467431,46 166.572,45.1045695 166.572,44 L166.572,25.48 C166.572,22.8525348 165.474301,21.552 162.964,21.552 C160.890646,21.552 158.829635,22.7857821 157.564,24.4595821 L157.564,44 C157.564,45.1045695 156.668569,46 155.564,46 L149.372,46 C148.267431,46 147.372,45.1045695 147.372,44 L147.372,25.48 C147.372,22.8525348 146.274301,21.552 143.764,21.552 C141.750184,21.552 139.707737,22.7750111 138.364,24.4728338 L138.364,44 C138.364,45.1045695 137.468569,46 136.364,46 L130.236,46 C129.131431,46 128.236,45.1045695 128.236,44 L128.236,15.088 C128.236,13.9834305 129.131431,13.088 130.236,13.088 L136.364,13.088 C137.468569,13.088 138.364,13.9834305 138.364,15.088 L138.364,15.634262 C140.694049,13.7614495 144.13484,12.32 147.476,12.32 C151.60879,12.32 154.705322,13.9761209 156.307711,16.9302456 C158.750659,14.2352484 162.685066,12.32 166.676,12.32 Z M233.334148,46 L225.185853,46 C224.457977,46 223.78757,45.6045581 223.435452,44.9675211 L216.192842,31.8644789 C215.840725,31.2274419 215.170317,30.832 214.442441,30.832 L212.556,30.832 C211.451431,30.832 210.556,31.7274305 210.556,32.832 L210.556,44 C210.556,45.1045695 209.660569,46 208.556,46 L201.468,46 C200.363431,46 199.468,45.1045695 199.468,44 L199.468,3.312 C199.468,2.2074305 200.363431,1.312 201.468,1.312 L220.436,1.312 C229.673108,1.312 235.836,7.37581046 235.836,16.072 C235.836,22.7168238 232.154263,27.5587515 226.948523,29.3447839 L235.0533,42.9779844 C235.617743,43.9274459 235.305625,45.1547085 234.356163,45.7191521 C234.046948,45.9029769 233.693877,46 233.334148,46 Z M219.156,20.832 C222.354114,20.832 224.492,18.9500581 224.492,16.008 C224.492,13.1786414 222.337016,11.312 219.156,11.312 L212.556,11.312 C211.451431,11.312 210.556,12.2074305 210.556,13.312 L210.556,18.832 C210.556,19.9365695 211.451431,20.832 212.556,20.832 L219.156,20.832 Z M253.844,46.768 C243.573111,46.768 236.524,39.3172305 236.524,29.512 C236.524,19.7201293 243.563147,12.32 253.844,12.32 C264.178124,12.32 271.228,19.7103535 271.228,29.512 C271.228,39.3270519 264.168125,46.768 253.844,46.768 Z M253.844,37.536 C258.073298,37.536 260.78,34.2170676 260.78,29.512 C260.78,24.8633514 258.066307,21.552 253.844,21.552 C249.677122,21.552 246.972,24.8726591 246.972,29.512 C246.972,34.2076997 249.670185,37.536 253.844,37.536 Z M291.476,37.536 C295.553219,37.536 298.284,34.3740432 298.284,29.512 C298.284,24.705715 295.546511,21.552 291.476,21.552 C289.244854,21.552 286.732054,22.7888301 285.436,24.4617556 L285.436,34.7449413 C286.72928,36.3510781 289.236426,37.536 291.476,37.536 Z M283.436,46 L277.308,46 C276.203431,46 275.308,45.1045695 275.308,44 L275.308,3.312 C275.308,2.2074305 276.203431,1.312 277.308,1.312 L283.436,1.312 C284.540569,1.312 285.436,2.2074305 285.436,3.312 L285.436,15.5080457 C287.7936,13.4180205 290.759825,12.32 293.972,12.32 C302.655802,12.32 308.668,19.1995311 308.668,29.512 C308.668,40.0219626 302.701851,46.768 293.972,46.768 C290.785782,46.768 287.825372,45.6346667 285.436,43.5357764 L285.436,44 C285.436,45.1045695 284.540569,46 283.436,46 Z M317.844,11.76 C314.65577,11.76 312.044,9.12426911 312.044,5.896 C312.044,2.67565993 314.647546,0.096 317.844,0.096 C321.092664,0.096 323.708,2.66378466 323.708,5.896 C323.708,9.13628475 321.084285,11.76 317.844,11.76 Z M312.812,44 L312.812,15.088 C312.812,13.9834305 313.707431,13.088 314.812,13.088 L320.94,13.088 C322.044569,13.088 322.94,13.9834305 322.94,15.088 L322.94,44 C322.94,45.1045695 322.044569,46 320.94,46 L314.812,46 C313.707431,46 312.812,45.1045695 312.812,44 Z M348.948,12.32 C356.110505,12.32 360.06,16.3639805 360.06,23.176 L360.06,44 C360.06,45.1045695 359.164569,46 358.06,46 L351.868,46 C350.763431,46 349.868,45.1045695 349.868,44 L349.868,26.312 C349.868,22.8827281 348.407732,21.552 345.172,21.552 C342.782578,21.552 340.645606,22.7027419 339.132,24.4917565 L339.132,44 C339.132,45.1045695 338.236569,46 337.132,46 L331.004,46 C329.899431,46 329.004,45.1045695 329.004,44 L329.004,15.088 C329.004,13.9834305 329.899431,13.088 331.004,13.088 L337.820776,13.088 C338.544945,13.088 339.132,13.6750551 339.132,14.3992242 L339.132,14.3992242 C339.132,14.8297238 339.480989,15.1787127 339.911488,15.1787127 C340.037935,15.1787127 340.162484,15.1479513 340.274391,15.0890821 C343.783718,13.2430422 346.674913,12.32 348.948,12.32 Z M371.22,46.704 C367.851715,46.704 365.036,43.8882847 365.036,40.52 C365.036,37.1517153 367.851715,34.336 371.22,34.336 C374.588285,34.336 377.404,37.1517153 377.404,40.52 C377.404,43.8882847 374.588285,46.704 371.22,46.704 Z" id="path-3"></path>
    </defs>
    <g id="Symbols" stroke="none" stroke-width="1" fill="none" fill-rule="evenodd">
        <g id="hero-unit-name">
            <g>
                <path d="M42.148,50 L32.996,50 L32.996,32.016 L12.836,32.016 L12.836,50 L3.748,50 L3.748,7.312 L12.836,7.312 L12.836,24.08 L32.996,24.08 L32.996,7.312 L42.148,7.312 L42.148,50 Z M54.372,15.76 C51.748,15.76 49.572,13.584 49.572,10.896 C49.572,8.208 51.748,6.096 54.372,6.096 C57.06,6.096 59.236,8.208 59.236,10.896 C59.236,13.584 57.06,15.76 54.372,15.76 Z M58.468,50 L50.34,50 L50.34,19.088 L58.468,19.088 L58.468,50 Z M76.26,46.864 C76.26,51.664 73.636,55.952 69.668,58.768 L66.148,55.888 C68.196,54.8 70.564,52.112 71.076,49.872 C70.884,49.936 70.372,50.064 69.86,50.064 C67.428,50.064 65.508,48.144 65.508,45.456 C65.508,42.64 67.812,40.336 70.564,40.336 C73.572,40.336 76.26,42.704 76.26,46.864 Z M108.58,50 L99.492,50 L99.492,7.312 L108.58,7.312 L108.58,50 Z M121.828,26 L118.244,26 C118.244,26 115.62,12.304 115.62,11.088 C115.62,8.656 117.604,6.672 120.036,6.672 C122.404,6.672 124.452,8.656 124.452,11.088 C124.452,12.304 121.828,26 121.828,26 Z M177.764,50 L169.572,50 L169.572,30.48 C169.572,27.6 168.292,25.552 164.964,25.552 C162.084,25.552 159.716,27.472 158.564,29.136 L158.564,50 L150.372,50 L150.372,30.48 C150.372,27.6 149.092,25.552 145.764,25.552 C142.948,25.552 140.58,27.472 139.364,29.136 L139.364,50 L131.236,50 L131.236,19.088 L139.364,19.088 L139.364,23.056 C140.708,21.264 144.74,18.32 149.476,18.32 C154.02,18.32 156.964,20.432 158.052,23.888 C159.844,21.136 163.94,18.32 168.676,18.32 C174.372,18.32 177.764,21.328 177.764,27.664 L177.764,50 Z M237.092,50 L226.596,50 L218.212,34.832 L211.556,34.832 L211.556,50 L202.468,50 L202.468,7.312 L222.436,7.312 C231.332,7.312 236.836,13.136 236.836,21.072 C236.836,28.56 232.036,32.656 227.428,33.744 L237.092,50 Z M221.156,26.832 C224.74,26.832 227.492,24.656 227.492,21.008 C227.492,17.488 224.74,15.312 221.156,15.312 L211.556,15.312 L211.556,26.832 L221.156,26.832 Z M255.844,50.768 C245.668,50.768 239.524,43.28 239.524,34.512 C239.524,25.744 245.668,18.32 255.844,18.32 C266.084,18.32 272.228,25.744 272.228,34.512 C272.228,43.28 266.084,50.768 255.844,50.768 Z M255.844,43.536 C260.964,43.536 263.78,39.376 263.78,34.512 C263.78,29.712 260.964,25.552 255.844,25.552 C250.788,25.552 247.972,29.712 247.972,34.512 C247.972,39.376 250.788,43.536 255.844,43.536 Z M286.436,40.08 C287.844,42.064 290.788,43.536 293.476,43.536 C298.148,43.536 301.284,39.888 301.284,34.512 C301.284,29.2 298.148,25.552 293.476,25.552 C290.788,25.552 287.844,27.088 286.436,29.136 L286.436,40.08 Z M286.436,50 L278.308,50 L278.308,7.312 L286.436,7.312 L286.436,23.056 C288.868,19.856 292.324,18.32 295.972,18.32 C303.844,18.32 309.668,24.464 309.668,34.512 C309.668,44.88 303.78,50.768 295.972,50.768 C292.26,50.768 288.868,49.104 286.436,46.032 L286.436,50 Z M319.844,15.76 C317.22,15.76 315.044,13.584 315.044,10.896 C315.044,8.208 317.22,6.096 319.844,6.096 C322.532,6.096 324.708,8.208 324.708,10.896 C324.708,13.584 322.532,15.76 319.844,15.76 Z M323.94,50 L315.812,50 L315.812,19.088 L323.94,19.088 L323.94,50 Z M361.06,50 L352.868,50 L352.868,31.312 C352.868,27.024 350.628,25.552 347.172,25.552 C343.972,25.552 341.54,27.344 340.132,29.136 L340.132,50 L332.004,50 L332.004,19.088 L340.132,19.088 L340.132,23.056 C342.116,20.752 345.956,18.32 350.948,18.32 C357.796,18.32 361.06,22.16 361.06,28.176 L361.06,50 Z M373.22,50.704 C370.404,50.704 368.036,48.336 368.036,45.52 C368.036,42.704 370.404,40.336 373.22,40.336 C376.036,40.336 378.404,42.704 378.404,45.52 C378.404,48.336 376.036,50.704 373.22,50.704 Z" id="nameplate" fill="#2B303B"></path>
                <mask id="mask-2" fill="white">
                    <use xlink:href="#path-1"></use>
                </mask>
                <use id="hero-unit-mask" fill="white" xlink:href="#path-1"></use>
                <g id="overlay-container" mask="url(#mask-2)">
                    <g transform="translate(2.000000, 5.000000)">
                        <mask id="mask-4" fill="white">
                            <use xlink:href="#path-3"></use>
                        </mask>
                        <use id="primary-overlay" stroke="none" fill="#D64141" fill-rule="nonzero" xlink:href="#path-3"></use>
                        <path d="M-1.72257137,64.074827 C-15.1963173,64.3271798 -21.3488008,64.3271798 -20.1800219,64.074827 C-19.4347868,63.9139222 -19.4347868,31.3843493 -20.1800219,-33.5138918 L382.406189,-33.5138918 C338.776945,-18.8580782 318.150277,-6.11567289 320.526185,4.71332408 C322.527478,13.8348868 312.387616,17.2110988 316.012603,22.0497001 C321.402455,29.2440272 333.023677,5.88211209 333.513907,9.94428955 C333.596868,10.6317329 357.749271,11.0431408 358.157823,13.8348868 C358.639797,17.1283372 365.983544,36.9898026 359.662128,36.9898026 C356.721998,36.9898026 356.721998,24.8818932 353.529501,24.8818932 C351.072455,24.330657 345.759332,35.1882524 341.326953,38.1040691 C340.231301,38.8248375 338.250966,31.9634443 335.276378,31.9634443 C333.609912,31.9634443 333.196368,39.3041518 330.7161,39.3041518 C328.235831,39.3041518 327.594271,35.860974 326.774888,36.0600823 C326.210523,36.7551979 323.502497,44.6775622 323.420721,44.7750443 C322.601295,45.7518555 314.433963,51.2953155 311.364268,47.5855261 C310.924432,47.0539757 320.526185,44.7750443 318.39214,39.3041518 C315.849053,32.7846288 307.107154,26.5097676 306.965473,27.0613355 C304.861996,35.2502052 299.740424,41.6616091 281.889451,39.3041518 C264.038478,36.9466946 270.51755,36.7476366 269.43616,36.9898026 C259.101458,39.3041518 272.121327,15.9516236 255.807147,13.8348868 C239.492967,11.7181501 249.104604,25.6959726 240.984509,23.3928909 C232.864414,21.0898093 236.230215,20.5316853 235.540676,20.5316853 C232.727051,20.5316853 226.208272,13.68879 222.514445,9.20105703 C218.820618,4.71332408 215.60656,4.71332408 210.632016,4.71332408 C199.856674,4.71332408 208.558339,15.6109166 201.293271,20.5316853 C193.132689,23.7898198 190.754086,35.2211953 179.145333,39.3041518 C176.863527,40.1066943 171.462823,43.2694507 167.586135,31.9634443 C165.09484,24.6978099 157.947291,23.3250124 155.649001,24.8818932 C152.330691,27.1297444 148.578971,38.0535581 146.076763,39.3041518 C142.671698,41.0059899 134.039368,16.7575642 126.084427,27.0613355 C125.354443,28.4622621 123.865985,-5.45724163 122.545336,-4.7036554 C116.424738,-1.21113213 122.545336,-6.14453233 122.545336,-2.600594 C122.545336,14.7835031 107.627869,30.8265953 107.627869,27.0613355 C107.627869,19.395172 96.5533654,7.85455855 94.7017759,9.94428955 C90.5055112,14.6802552 56.3177264,-0.391295083 56.5689433,0.205205215 C58.089884,3.81659404 58.3885179,6.44314257 54.0925578,3.20696626 C52.0181891,1.64433002 50.2353385,3.19913083 48.7440062,7.87136868 C43.8058042,13.6845329 39.0711432,16.5911149 34.5400232,16.5911149 C32.2433799,16.5911149 26.2235166,14.3755065 16.4804334,9.94428955 C9.26152444,11.6514165 5.08763225,10.9604429 3.95875679,7.87136868 C3.91220269,7.78010786 2.35704979,5.08889616 0.561207668,4.71332408 C-0.392456807,4.51388018 -3.52592134,32.8934151 5.14346137,45.6521647 C5.2489763,45.8074512 5.45285958,47.2491868 5.7551112,49.9773715 C18.6880564,49.9773715 27.064798,49.9773715 30.885336,49.9773715 C31.0798903,49.9773715 27.3229698,34.671752 27.9470042,33.6363255 C29.5503804,30.9759303 25.3856769,36.9898026 34.5400232,41.4267897 C43.6943695,45.8637769 39.7196544,49.9773715 40.13144,49.9773715 C40.5424345,49.9773715 43.0744307,29.7783378 46.9353615,30.8971441 C46.1482712,35.8631813 63.536792,51.4896406 62.1623477,51.4559548 C74.368041,49.9773715 75.7079894,34.7178388 69.3996415,34.5837288 C83.2377163,33.9845509 71.2685397,59.4207162 70.969246,59.4815576 C62.9903109,61.1035403 -1.55848084,56.1968291 -1.56859181,56.9852707 C-1.60801234,60.0592374 -1.65933886,62.4224229 -1.72257137,64.074827 Z" id="secondary-overlay" stroke="none" fill-opacity="0.9" fill="#218074" fill-rule="evenodd" mask="url(#mask-4)"></path>
                        <g id="circle-decals" stroke="none" stroke-width="1" fill="none" fill-rule="evenodd" mask="url(#mask-4)">
                            <g transform="translate(-2.000000, -6.000000)" fill="#324141" id="Oval-2">
                                <ellipse cx="9" cy="19.5" rx="1" ry="1.5"></ellipse>
                                <circle cx="2" cy="56" r="2"></circle>
                                <circle cx="110" cy="5" r="1"></circle>
                                <ellipse cx="154" cy="44.5" rx="1" ry="1.5"></ellipse>
                                <circle cx="133" cy="34" r="1"></circle>
                                <circle cx="205" cy="32" r="2"></circle>
                                <circle cx="197" cy="32" r="1"></circle>
                                <circle cx="203" cy="5" r="1"></circle>
                                <circle cx="198" cy="16" r="2"></circle>
                                <circle cx="357" cy="46" r="2"></circle>
                                <circle cx="344" cy="15" r="2"></circle>
                                <circle cx="245" cy="35" r="2"></circle>
                                <circle cx="264.5" cy="46.5" r="1.5"></circle>
                                <ellipse cx="293.5" cy="28" rx="2.5" ry="2"></ellipse>
                                <circle cx="293.5" cy="34.5" r="1.5"></circle>
                                <circle cx="293.5" cy="45.5" r="1.5"></circle>
                                <circle cx="102" cy="36" r="2"></circle>
                                <circle cx="38" cy="41" r="3"></circle>
                                <circle cx="64.5" cy="17.5" r="1.5"></circle>
                                <circle cx="35.5" cy="7.5" r="1.5"></circle>
                                <circle cx="35" cy="1" r="1"></circle>
                                <circle cx="302.5" cy="47.5" r="1.5"></circle>
                            </g>
                        </g>
                    </g>
                </g>
            </g>
        </g>
    </g>
</svg>
