<?xml version="1.0" encoding="UTF-8"?>
<svg width="604px" height="98px" viewBox="0 0 604 98" version="1.1" xmlns="http://www.w3.org/2000/svg" xmlns:xlink="http://www.w3.org/1999/xlink">
    <!-- Generator: Sketch 50.2 (55047) - http://www.bohemiancoding.com/sketch -->
    <title>hero-unit-name</title>
    <desc>Created with Sketch.</desc>
    <defs>
        <path d="M0,233.027882 C11.7508868,262.966114 20.7337898,271.200203 26.948709,257.730146 C36.2710877,237.525061 72.9709677,175.237024 85.6159808,209.289499 C94.0459896,231.991149 98.0160114,217.199491 97.5260462,164.914526 C98.1650502,204.153468 104.200191,213.963203 115.631469,194.343732 C132.778387,164.914526 138.410686,158.583571 147.843418,177.924124 C154.131905,190.817826 163.807728,181.382654 176.870887,149.618607 C185.693168,174.135877 190.104309,179.234517 190.104309,164.914526 C190.104309,143.43454 186.130561,74.623491 207.128269,106.453995 C228.125977,138.284499 210.224551,197.9751 230.559968,171.485171 C231.663975,146.312947 236.78795,133.907569 243.355883,156.735544 C244.45586,158.271827 252.526949,173.562842 255.140086,138.954796 C254.636113,137.68771 254.503726,117.477685 262.115974,117.477685 C269.728221,117.477685 263.922754,133.538003 270.502985,130.092735 C277.083217,126.647467 278.557526,113.166575 278.557526,108.757417 C278.557526,104.348259 289.29591,125.980657 292.70036,106.453995 C296.104809,86.9273324 298.740512,85.1519033 300.700741,89.1477501 C302.66097,93.1435969 321.968903,130.420085 323.874841,114.201727 C325.145467,103.389487 328.817074,100.80691 334.889662,106.453995 C337.421756,107.016319 338.682796,107.431457 338.672781,107.69941 C337.899367,128.392348 343.698032,130.505464 346.783825,119.209086 C349.740969,108.383658 356.167307,95.3689673 360.424054,111.147978 C361.301622,114.400967 362.387024,123.669906 363.680261,138.954796 C360.904511,162.223929 365.883745,165.338849 378.617962,148.299557 C391.352179,131.260264 397.602446,135.317957 397.368763,160.472635 C397.027767,192.144023 405.840021,195.814868 423.805527,171.485171 C434.491258,160.472635 413.509436,149.618607 423.805527,149.618607 C434.101619,149.618607 435.698289,173.484967 444.462399,175.704545 C453.226509,177.924124 453.226509,132.981637 463.614518,154.129158 C463.388701,157.829984 482.426473,168.258007 485.367653,162.496776 C488.308834,156.735544 490.038693,145.579218 493.858625,158.532195 C494.476851,171.889976 496.545143,183.137795 503.754427,172.817285 C510.963711,162.496776 503.474634,139.898301 513.75578,152.406413 C514.342173,153.103575 523.543518,165.477636 520.031862,145.09413 C520.334273,144.529329 527.297893,160.472635 536.512858,156.735544 C537.0448,156.936283 548.381032,157.135104 548.495231,156.735544 C549.25838,149.824729 553.177312,126.467807 561.576974,134.433927 C569.976636,142.400046 568.090125,173.824389 583.287759,154.129158 C588.41451,154.129158 584.583687,168.597722 590.577462,164.914526 C594.573312,162.459062 599.047492,157.360422 604,149.618607 L604,1.13686838e-13 L0,1.13686838e-13 L0,233.027882 Z" id="path-1"></path>
        <path d="M46.2829101,27.5992727 L46.2829101,3.07534545 C46.2829101,2.5230607 46.7306253,2.07534545 47.2829101,2.07534545 L62.8989288,2.07534545 C63.4512136,2.07534545 63.8989288,2.5230607 63.8989288,3.07534545 L63.8989288,71.7636364 C63.8989288,72.3159211 63.4512136,72.7636364 62.8989288,72.7636364 L47.2829101,72.7636364 C46.7306253,72.7636364 46.2829101,72.3159211 46.2829101,71.7636364 L46.2829101,45.3162182 C46.2829101,44.7639334 45.8351948,44.3162182 45.2829101,44.3162182 L18.5968537,44.3162182 C18.044569,44.3162182 17.5968537,44.7639334 17.5968537,45.3162182 L17.5968537,71.7636364 C17.5968537,72.3159211 17.1491385,72.7636364 16.5968537,72.7636364 L1.08193124,72.7636364 C0.529646487,72.7636364 0.0819312365,72.3159211 0.0819312365,71.7636364 L0.0819312365,3.07534545 C0.0819312365,2.5230607 0.529646487,2.07534545 1.08193124,2.07534545 L16.5968537,2.07534545 C17.1491385,2.07534545 17.5968537,2.5230607 17.5968537,3.07534545 L17.5968537,27.5992727 C17.5968537,28.1515575 18.044569,28.5992727 18.5968537,28.5992727 L45.2829101,28.5992727 C45.8351948,28.5992727 46.2829101,28.1515575 46.2829101,27.5992727 Z M81.6286808,18.6021818 C76.5924609,18.6021818 72.4668347,14.4329348 72.4668347,9.3264 C72.4668347,4.23240752 76.57947,0.151854545 81.6286808,0.151854545 C86.7603632,0.151854545 90.8916233,4.21362301 90.8916233,9.3264 C90.8916233,14.4519413 86.7471275,18.6021818 81.6286808,18.6021818 Z M73.6799895,70.7636364 L73.6799895,22.7028364 C73.6799895,21.5982669 74.57542,20.7028364 75.6799895,20.7028364 L87.6784685,20.7028364 C88.783038,20.7028364 89.6784685,21.5982669 89.6784685,22.7028364 L89.6784685,70.7636364 C89.6784685,71.8682059 88.783038,72.7636364 87.6784685,72.7636364 L75.6799895,72.7636364 C74.57542,72.7636364 73.6799895,71.8682059 73.6799895,70.7636364 Z M97.6397969,63.9940364 C97.6397969,58.6849191 101.967722,54.3133091 107.206028,54.3133091 C113.21196,54.3133091 117.783221,59.170455 117.783221,66.2212364 C117.783221,74.0974158 113.615444,81.4301194 106.704886,86.341184 L106.704886,86.341184 C106.124913,86.7533486 105.340859,86.7264594 104.790485,86.2755296 L99.2296467,81.719446 C98.5536944,81.1656275 98.4546853,80.1687013 99.0085038,79.492749 C99.1411289,79.330876 99.3045471,79.1969195 99.4892968,79.0986351 C101.782642,77.878607 104.245186,75.2999383 105.584922,72.850343 C101.048564,72.5901178 97.6397969,68.8632411 97.6397969,63.9940364 Z M151.321897,70.7636364 L151.321897,4.07534545 C151.321897,2.97077595 152.217328,2.07534545 153.321897,2.07534545 L166.83682,2.07534545 C167.941389,2.07534545 168.83682,2.97077595 168.83682,4.07534545 L168.83682,70.7636364 C168.83682,71.8682059 167.941389,72.7636364 166.83682,72.7636364 L153.321897,72.7636364 C152.217328,72.7636364 151.321897,71.8682059 151.321897,70.7636364 Z M180.97131,33.515827 C180.93877,33.3457443 180.877984,33.0270947 180.792862,32.5793602 C180.651043,31.833409 180.49303,30.9990513 180.322867,30.0964918 C179.836662,27.5176189 179.350445,24.9085946 178.896547,22.4308688 C178.824239,22.0358936 178.824239,22.0358936 178.752028,21.6403664 C177.49393,14.7442455 176.798148,10.591786 176.798148,9.63010909 C176.798148,4.90951321 180.639355,1.06298182 185.353417,1.06298182 C189.997761,1.06298182 193.908686,4.94055126 193.908686,9.63010909 C193.908686,10.591786 193.212904,14.7442455 191.954805,21.6403664 C191.882595,22.0358936 191.882595,22.0358936 191.810286,22.4308688 C191.356389,24.9085946 190.870171,27.5176189 190.383967,30.0964918 C190.213804,30.9990513 190.05579,31.833409 189.913972,32.5793602 C189.828849,33.0270947 189.768064,33.3457443 189.735523,33.515827 L189.735523,33.515827 C189.592941,34.2610707 188.941126,34.8 188.182365,34.8 L182.524468,34.8 C181.765707,34.8 181.113893,34.2610707 180.97131,33.515827 Z M262.186554,19.488 C272.331569,19.488 278.121848,25.2268355 278.121848,35.8503273 L278.121848,70.7636364 C278.121848,71.8682059 277.226418,72.7636364 276.121848,72.7636364 L264.022273,72.7636364 C262.917704,72.7636364 262.022273,71.8682059 262.022273,70.7636364 L262.022273,40.3047273 C262.022273,36.148555 260.288316,34.0913455 256.322973,34.0913455 C253.047843,34.0913455 249.792211,36.0429645 247.792978,38.6906116 L247.792978,70.7636364 C247.792978,71.8682059 246.897548,72.7636364 245.792978,72.7636364 L233.693403,72.7636364 C232.588833,72.7636364 231.693403,71.8682059 231.693403,70.7636364 L231.693403,40.3047273 C231.693403,36.148555 229.959446,34.0913455 225.994103,34.0913455 C222.813022,34.0913455 219.586713,36.0259266 217.464108,38.7115734 L217.464108,70.7636364 C217.464108,71.8682059 216.568678,72.7636364 215.464108,72.7636364 L203.465629,72.7636364 C202.36106,72.7636364 201.465629,71.8682059 201.465629,70.7636364 L201.465629,22.7028364 C201.465629,21.5982669 202.36106,20.7028364 203.465629,20.7028364 L215.464108,20.7028364 C216.568678,20.7028364 217.464108,21.5982669 217.464108,22.7028364 L217.464108,24.7305599 C221.14472,21.768111 226.579893,19.488 231.857684,19.488 C238.385957,19.488 243.277329,22.1076822 245.808508,26.7805703 C249.667459,22.5175747 255.882361,19.488 262.186554,19.488 Z M369.521964,72.7636364 L353.927394,72.7636364 C353.199098,72.7636364 352.528373,72.3677422 352.176426,71.7301312 L340.073763,49.8041234 C339.721816,49.1665124 339.051091,48.7706182 338.322795,48.7706182 L333.50066,48.7706182 C332.39609,48.7706182 331.50066,49.6660487 331.50066,50.7706182 L331.50066,70.7636364 C331.50066,71.8682059 330.605229,72.7636364 329.50066,72.7636364 L315.985737,72.7636364 C314.881168,72.7636364 313.985737,71.8682059 313.985737,70.7636364 L313.985737,4.07534545 C313.985737,2.97077595 314.881168,2.07534545 315.985737,2.07534545 L347.107391,2.07534545 C361.698591,2.07534545 371.433672,11.6671911 371.433672,25.4229818 C371.433672,35.9338849 365.617895,43.5929341 357.394759,46.4181126 L371.241737,69.7426665 C371.805603,70.6924712 371.492738,71.9195437 370.542934,72.4834098 C370.233962,72.6668357 369.881281,72.7636364 369.521964,72.7636364 Z M345.085466,32.9524364 C350.137299,32.9524364 353.514365,29.9755465 353.514365,25.3217455 C353.514365,20.8462146 350.11029,17.8935273 345.085466,17.8935273 L333.50066,17.8935273 C332.39609,17.8935273 331.50066,18.7889578 331.50066,19.8935273 L331.50066,30.9524364 C331.50066,32.0570059 332.39609,32.9524364 333.50066,32.9524364 L345.085466,32.9524364 Z M399.879625,73.9784727 C383.655434,73.9784727 372.520457,62.1927101 372.520457,46.6826182 C372.520457,31.1936591 383.639696,19.488 399.879625,19.488 C416.203703,19.488 427.339889,31.1781955 427.339889,46.6826182 C427.339889,62.2082458 416.187908,73.9784727 399.879625,73.9784727 Z M399.879625,59.3751273 C406.560345,59.3751273 410.835929,54.1251796 410.835929,46.6826182 C410.835929,39.3293013 406.549302,34.0913455 399.879625,34.0913455 C393.297506,34.0913455 389.024417,39.3440244 389.024417,46.6826182 C389.024417,54.1103613 393.286547,59.3751273 399.879625,59.3751273 Z M459.32421,59.3751273 C465.764703,59.3751273 470.078322,54.3734866 470.078322,46.6826182 C470.078322,39.0799492 465.754107,34.0913455 459.32421,34.0913455 C455.799829,34.0913455 451.830537,36.0477859 449.783253,38.6940497 L449.783253,54.9601798 C451.826155,57.5007962 455.786515,59.3751273 459.32421,59.3751273 Z M447.783253,72.7636364 L435.784774,72.7636364 C434.680205,72.7636364 433.784774,71.8682059 433.784774,70.7636364 L433.784774,4.07534545 C433.784774,2.97077595 434.680205,2.07534545 435.784774,2.07534545 L447.783253,2.07534545 C448.887823,2.07534545 449.783253,2.97077595 449.783253,4.07534545 L449.783253,24.5309087 C453.507386,21.2248687 458.19292,19.488 463.266964,19.488 C476.984146,19.488 486.481186,30.3701674 486.481186,46.6826182 C486.481186,63.3074682 477.056887,73.9784727 463.266964,73.9784727 C458.233923,73.9784727 453.557574,72.1857456 449.783253,68.8656826 L449.783253,70.7636364 C449.783253,71.8682059 448.887823,72.7636364 447.783253,72.7636364 Z M500.975859,18.6021818 C495.939639,18.6021818 491.814013,14.4329348 491.814013,9.3264 C491.814013,4.23240752 495.926648,0.151854545 500.975859,0.151854545 C506.107541,0.151854545 510.238801,4.21362301 510.238801,9.3264 C510.238801,14.4519413 506.094305,18.6021818 500.975859,18.6021818 Z M493.027167,70.7636364 L493.027167,22.7028364 C493.027167,21.5982669 493.922598,20.7028364 495.027167,20.7028364 L507.025646,20.7028364 C508.130216,20.7028364 509.025646,21.5982669 509.025646,22.7028364 L509.025646,70.7636364 C509.025646,71.8682059 508.130216,72.7636364 507.025646,72.7636364 L495.027167,72.7636364 C493.922598,72.7636364 493.027167,71.8682059 493.027167,70.7636364 Z M550.108628,19.488 C561.422727,19.488 567.661462,25.8848418 567.661462,36.6602182 L567.661462,70.7636364 C567.661462,71.8682059 566.766031,72.7636364 565.661462,72.7636364 L553.561887,72.7636364 C552.457317,72.7636364 551.561887,71.8682059 551.561887,70.7636364 L551.561887,41.6208 C551.561887,36.1963154 549.255205,34.0913455 544.143951,34.0913455 C540.369552,34.0913455 536.993928,35.9116098 534.602993,38.7415058 L534.602993,70.7636364 C534.602993,71.8682059 533.707563,72.7636364 532.602993,72.7636364 L520.604514,72.7636364 C519.499945,72.7636364 518.604514,71.8682059 518.604514,70.7636364 L518.604514,22.7028364 C518.604514,21.5982669 519.499945,20.7028364 520.604514,20.7028364 L532.602993,20.7028364 C533.707563,20.7028364 534.602993,21.5982669 534.602993,22.7028364 L534.602993,22.7769547 C534.602993,23.4575089 535.154692,24.0092071 535.835246,24.0092071 C536.035364,24.0092071 536.232471,23.9604686 536.409528,23.867205 C541.952054,20.9477418 546.518417,19.488 550.108628,19.488 Z M585.290118,73.8772364 C579.969479,73.8772364 575.521694,69.4232868 575.521694,64.0952727 C575.521694,58.7672587 579.969479,54.3133091 585.290118,54.3133091 C590.610757,54.3133091 595.058541,58.7672587 595.058541,64.0952727 C595.058541,69.4232868 590.610757,73.8772364 585.290118,73.8772364 Z" id="path-3"></path>
    </defs>
    <g id="hero-unit-name" stroke="none" stroke-width="1" fill="none" fill-rule="evenodd">
        <g transform="translate(0.000000, -1.000000)">
            <path d="M66.6764605,81.0170109 L52.2152374,81.0170109 L52.2152374,52.3365735 L20.3600957,52.3365735 L20.3600957,81.0170109 L6,81.0170109 L6,12.9392467 L20.3600957,12.9392467 L20.3600957,39.6804374 L52.2152374,39.6804374 L52.2152374,12.9392467 L66.6764605,12.9392467 L66.6764605,81.0170109 Z M85.9918005,26.4119077 C81.8455757,26.4119077 78.4072429,22.9416768 78.4072429,18.654921 C78.4072429,14.3681652 81.8455757,11 85.9918005,11 C90.2391527,11 93.6774855,14.3681652 93.6774855,18.654921 C93.6774855,22.9416768 90.2391527,26.4119077 85.9918005,26.4119077 Z M92.4639563,81.0170109 L79.6207721,81.0170109 L79.6207721,31.7193196 L92.4639563,31.7193196 L92.4639563,81.0170109 Z M120.577383,76.0157959 C120.577383,83.6707169 116.431158,90.509113 110.161257,95 L104.599248,90.4070474 C107.835326,88.671932 111.577041,84.3851762 112.386061,80.8128797 C112.082679,80.9149453 111.273659,81.1190765 110.46464,81.1190765 C106.621797,81.1190765 103.587974,78.0571081 103.587974,73.7703524 C103.587974,69.2794654 107.228562,65.6051033 111.577041,65.6051033 C116.330031,65.6051033 120.577383,69.381531 120.577383,76.0157959 Z M171.646737,81.0170109 L157.286642,81.0170109 L157.286642,12.9392467 L171.646737,12.9392467 L171.646737,81.0170109 Z M192.580116,42.7424058 L186.91698,42.7424058 C186.91698,42.7424058 182.770755,20.9003645 182.770755,18.9611179 C182.770755,15.0826245 185.905706,11.9185905 189.748548,11.9185905 C193.490263,11.9185905 196.726341,15.0826245 196.726341,18.9611179 C196.726341,20.9003645 192.580116,42.7424058 192.580116,42.7424058 Z M280.965494,81.0170109 L268.021182,81.0170109 L268.021182,49.8869988 C268.021182,45.2940462 265.998633,42.0279465 260.740007,42.0279465 C256.189272,42.0279465 252.447557,45.0899149 250.627263,47.7436209 L250.627263,81.0170109 L237.682952,81.0170109 L237.682952,49.8869988 C237.682952,45.2940462 235.660403,42.0279465 230.401777,42.0279465 C225.952169,42.0279465 222.210454,45.0899149 220.289033,47.7436209 L220.289033,81.0170109 L207.445849,81.0170109 L207.445849,31.7193196 L220.289033,31.7193196 L220.289033,38.0473876 C222.412709,35.1895504 228.783738,30.4945322 236.267168,30.4945322 C243.447216,30.4945322 248.099078,33.8626974 249.818244,39.3742406 C252.649812,34.9854192 259.121968,30.4945322 266.605398,30.4945322 C275.60574,30.4945322 280.965494,35.291616 280.965494,45.3961118 L280.965494,81.0170109 Z M374.710625,81.0170109 L358.125726,81.0170109 L344.878032,56.8274605 L334.360779,56.8274605 L334.360779,81.0170109 L320.000683,81.0170109 L320.000683,12.9392467 L351.552443,12.9392467 C365.609156,12.9392467 374.306115,22.2272175 374.306115,34.8833536 C374.306115,46.8250304 366.721558,53.3572296 359.440383,55.0923451 L374.710625,81.0170109 Z M349.529894,44.0692588 C355.19303,44.0692588 359.54151,40.5990279 359.54151,34.781288 C359.54151,29.1676792 355.19303,25.6974484 349.529894,25.6974484 L334.360779,25.6974484 L334.360779,44.0692588 L349.529894,44.0692588 Z M404.340963,82.2417983 C388.261701,82.2417983 378.553468,70.3001215 378.553468,56.3171324 C378.553468,42.3341434 388.261701,30.4945322 404.340963,30.4945322 C420.521353,30.4945322 430.229587,42.3341434 430.229587,56.3171324 C430.229587,70.3001215 420.521353,82.2417983 404.340963,82.2417983 Z M404.340963,70.708384 C412.431158,70.708384 416.880765,64.0741191 416.880765,56.3171324 C416.880765,48.6622114 412.431158,42.0279465 404.340963,42.0279465 C396.351896,42.0279465 391.902289,48.6622114 391.902289,56.3171324 C391.902289,64.0741191 396.351896,70.708384 404.340963,70.708384 Z M452.679877,65.1968408 C454.904681,68.3608748 459.556543,70.708384 463.803895,70.708384 C471.186197,70.708384 476.141442,64.890644 476.141442,56.3171324 C476.141442,47.8456865 471.186197,42.0279465 463.803895,42.0279465 C459.556543,42.0279465 454.904681,44.4775213 452.679877,47.7436209 L452.679877,65.1968408 Z M452.679877,81.0170109 L439.836693,81.0170109 L439.836693,12.9392467 L452.679877,12.9392467 L452.679877,38.0473876 C456.52272,32.9441069 461.983601,30.4945322 467.747865,30.4945322 C480.186539,30.4945322 489.389136,40.2928311 489.389136,56.3171324 C489.389136,72.8517618 480.085412,82.2417983 467.747865,82.2417983 C461.882474,82.2417983 456.52272,79.5880923 452.679877,74.6889429 L452.679877,81.0170109 Z M505.468398,26.4119077 C501.322173,26.4119077 497.88384,22.9416768 497.88384,18.654921 C497.88384,14.3681652 501.322173,11 505.468398,11 C509.71575,11 513.154083,14.3681652 513.154083,18.654921 C513.154083,22.9416768 509.71575,26.4119077 505.468398,26.4119077 Z M511.940553,81.0170109 L499.097369,81.0170109 L499.097369,31.7193196 L511.940553,31.7193196 L511.940553,81.0170109 Z M570.594465,81.0170109 L557.650154,81.0170109 L557.650154,51.2138518 C557.650154,44.3754557 554.110694,42.0279465 548.649812,42.0279465 C543.59344,42.0279465 539.750598,44.8857837 537.525794,47.7436209 L537.525794,81.0170109 L524.68261,81.0170109 L524.68261,31.7193196 L537.525794,31.7193196 L537.525794,38.0473876 C540.660745,34.3730255 546.728391,30.4945322 554.616331,30.4945322 C565.436966,30.4945322 570.594465,36.618469 570.594465,46.2126367 L570.594465,81.0170109 Z M589.808678,82.1397327 C585.359071,82.1397327 581.617356,78.363305 581.617356,73.872418 C581.617356,69.381531 585.359071,65.6051033 589.808678,65.6051033 C594.258285,65.6051033 598,69.381531 598,73.872418 C598,78.363305 594.258285,82.1397327 589.808678,82.1397327 Z" id="nameplate" fill="#2B303B"></path>
            <mask id="mask-2" fill="white">
                <use xlink:href="#path-1"></use>
            </mask>
            <g id="hero-unit-mask"></g>
            <g id="overlays" mask="url(#mask-2)">
                <g transform="translate(4.000000, 10.000000)">
                    <mask id="mask-4" fill="white">
                        <use xlink:href="#path-3"></use>
                    </mask>
                    <use id="red-letters" stroke="none" fill="#D64141" fill-rule="nonzero" xlink:href="#path-3"></use>
                    <path d="M-3.82065408,101.354726 C-25.1041693,101.753903 -34.8228085,101.753903 -32.9765718,101.354726 C-31.7993772,101.100204 -31.7993772,49.6443343 -32.9765718,-53.0128835 L602.960143,-53.0128835 C534.042139,-29.830051 501.459663,-9.67388257 505.212715,7.45562173 C508.374014,21.8842756 492.356798,27.224829 498.082932,34.8786166 C506.596896,46.2587339 524.954111,9.30443185 525.728492,15.730058 C525.859541,16.8174685 564.011368,17.4682409 564.656729,21.8842756 C565.418069,27.0939152 577.018462,58.5111422 567.032972,58.5111422 C562.388659,58.5111422 562.388659,39.3586311 557.345698,39.3586311 C553.464479,38.4866756 545.071718,55.6614174 538.070204,60.2737093 C536.339481,61.4138339 533.211287,50.5603574 528.512543,50.5603574 C525.880145,50.5603574 525.2269,62.172022 521.308996,62.172022 C517.391093,62.172022 516.377666,56.7255408 515.083345,57.0404938 C514.191858,58.1400403 509.914183,70.6717802 509.785007,70.8259791 C508.490618,72.3711169 495.589266,81.1398627 490.740288,75.2716504 C490.045511,74.4308343 505.212715,70.8259791 501.841716,62.172022 C497.824583,51.8593219 488.498084,39.3586311 483.791826,42.8061124 C466.97651,55.1238577 472.378931,65.9010907 444.181023,62.172022 C415.983115,58.4429534 426.217642,58.1280798 424.509448,58.5111422 C408.184457,62.172022 428.751015,25.2325683 402.980669,21.8842756 C377.210322,18.5359829 392.39314,40.6463566 379.566405,37.0033002 C366.73967,33.3602438 372.056385,32.4773932 370.967169,32.4773932 C366.522687,32.4773932 356.225436,21.6531769 350.390561,14.5543993 C344.555686,7.45562173 339.478669,7.45562173 331.620737,7.45562173 C314.599697,7.45562173 328.345097,24.6936317 316.868987,32.4773932 C303.978298,37.6311695 300.220988,55.7135271 281.88347,62.172022 C278.279063,63.4414982 269.747958,68.4444039 263.62423,50.5603574 C259.688909,39.0674448 248.398436,36.8959287 244.767992,39.3586311 C239.526293,42.9143229 233.59997,60.1938101 229.64741,62.172022 C224.268671,64.8640203 210.632796,26.5074197 198.066943,42.8061124 C196.913838,45.0221237 194.562628,-8.63236404 192.476493,-7.44032763 C182.808221,-1.91579082 192.476493,-9.71953296 192.476493,-4.11366688 C192.476493,23.3848141 168.912435,48.762069 168.912435,42.8061124 C168.912435,30.6796357 151.418832,12.4244835 148.494008,15.730058 C141.865468,23.2214947 87.8614634,-0.618957677 88.2582927,0.324597341 C90.6608143,6.03715785 91.1325449,10.1918801 84.3465233,5.07283754 C81.069791,2.60103113 78.2535492,5.06044331 75.8977978,12.4510741 C68.0972726,21.6464429 60.6182664,26.2441273 53.4607793,26.2441273 C49.8329358,26.2441273 40.3237872,22.7394375 24.9333338,15.730058 C13.5301384,18.4304225 6.93693868,17.3374279 5.15373466,12.4510741 C5.08019646,12.3067161 2.62363239,8.04970847 -0.213131283,7.45562173 C-1.71956701,7.14013774 -6.66927738,52.031402 7.02512796,72.2134241 C7.19180237,72.4590592 7.51386224,74.7396228 7.99130756,79.055115 C28.4205584,79.055115 41.6526994,79.055115 47.6877307,79.055115 C47.9950543,79.055115 42.060515,54.8444076 43.0462577,53.2065512 C45.5789967,48.9982898 39.0003116,58.5111422 53.4607793,65.5296492 C67.9212471,72.5481562 61.6426731,79.055115 62.2931415,79.055115 C62.9423602,79.055115 66.9419739,47.1039161 73.0408109,48.8736643 C71.7975005,56.7290322 99.2649061,81.4472497 97.0937947,81.3939648 C116.374258,79.055115 118.490878,54.9173086 108.526031,54.705171 C130.385051,53.7573805 111.478196,93.9927693 111.005423,94.0890093 C98.401669,96.654691 -3.56145199,88.8931661 -3.57742357,90.1403372 C-3.63969337,95.0027937 -3.72077021,98.7409234 -3.82065408,101.354726 Z" id="secondary-overlay" stroke="none" fill="#2B303B" fill-rule="evenodd" mask="url(#mask-4)"></path>
                    <path d="M-3.82065408,101.354726 C-25.1041693,101.753903 -34.8228085,101.753903 -32.9765718,101.354726 C-31.7993772,101.100204 -31.7993772,49.6443343 -32.9765718,-53.0128835 L602.960143,-53.0128835 C512.769922,-25.4629957 475.363304,-3.31733345 490.740288,13.4241034 C493.848056,17.2854739 498.701846,-5.90370972 514.737607,7.45562173 C528.065799,18.5592879 524.954111,9.30443185 525.728492,15.730058 C525.859541,16.8174685 564.011368,17.4682409 564.656729,21.8842756 C565.418069,27.0939152 578.74582,38.3644969 568.76033,38.3644969 C564.116017,38.3644969 566.01643,66.8919696 559.222614,58.9679614 C550.326357,55.2907471 538.011321,92.8053438 525.728492,84.1808503 C511.364683,74.0951783 552.063136,38.3644969 533.684152,38.3644969 C515.305168,38.3644969 518.65551,60.1510495 514.737607,60.1510495 C510.819704,60.1510495 513.995549,54.390218 512.701227,54.705171 C511.809741,55.8047175 509.914183,70.6717802 509.785007,70.8259791 C508.490618,72.3711169 495.589266,81.1398627 490.740288,75.2716504 C490.045511,74.4308343 507.394325,73.0006349 504.023326,64.3466777 C500.006193,54.0339776 477.525485,13.882191 466.763682,15.730058 C435.009538,21.1824379 493.851288,77.344118 480.596426,75.2716504 C467.341564,73.1991829 408.477779,96.9180394 386.729614,72.3303993 C362.597002,61.046358 430.487708,31.6332023 400.384931,17.5716913 C374.614584,14.2233987 375.268922,42.7421643 365.09823,39.3586311 C354.927539,35.975098 366.872454,24.3206126 360.012331,13.4241034 C353.152208,2.52759422 318.547199,-17.183441 312.080968,-16.0979143 C279.150551,-10.5696786 365.09823,37.0033002 374.776283,75.2716504 C361.885594,80.4254267 304.413734,79.055115 281.88347,62.172022 C279.925413,60.7047488 274.094283,51.9955847 267.970556,34.1115383 C264.035235,22.6186257 250.008791,39.233306 246.378346,41.6960084 C241.136648,45.2517001 232.862575,80.2526238 211.453457,79.055115 C190.044339,77.8576062 220.741118,25.944512 200.809848,21.1824379 C199.656743,23.3984491 194.562628,-8.63236404 192.476493,-7.44032763 C182.808221,-1.91579082 168.601077,-3.16258729 182.828967,1.24873909 C206.285605,8.52141881 175.211958,32.5394739 168.409877,48.4878899 C169.704147,32.4773932 151.131464,19.3449976 148.20664,22.6505721 C141.5781,30.1420088 90.4751297,4.58795292 90.7449429,5.53415651 C94.1309277,17.4084149 81.2426223,21.310165 85.8777111,13.4241034 C94.9620929,-2.03190995 68.3679151,-2.65543936 73.5265398,13.4241034 C71.8991107,16.5726031 50.4057407,15.2724805 53.4607793,26.2441273 C56.2745446,36.3492823 66.4200335,57.0404938 51.6448306,55.2907471 C37.0081681,55.4812736 -10.3801456,43.3339824 -2.42788972,26.9716343 C8.85677868,5.89432004 5.64832504,5.89432004 -0.213131283,7.45562173 C-6.0745876,9.01692341 -36.096905,62.172022 17.8962403,72.3303993 C18.7060574,72.4827599 15.4044131,74.7243318 7.99130756,79.055115 C28.4205584,79.055115 41.6526994,79.055115 47.6877307,79.055115 C47.9950543,79.055115 34.7186474,56.3430275 35.7043901,54.705171 C38.2371291,50.4969096 42.5228573,57.3281708 56.9833251,64.3466777 C71.4437928,71.3651847 63.9502229,79.055115 64.6006913,79.055115 C65.24991,79.055115 76.8285215,22.5508643 82.9273586,24.3206126 C81.6840481,32.1759805 98.9726546,72.3836842 96.8015431,72.3303993 C116.082006,69.9915495 113.75739,54.9173086 103.792543,54.705171 C130.84594,48.157159 111.478196,93.9927693 111.005423,94.0890093 C98.401669,96.654691 -3.56145199,88.8931661 -3.57742357,90.1403372 C-3.63969337,95.0027937 -3.72077021,98.7409234 -3.82065408,101.354726 Z" id="tertiary-overlay" stroke="none" fill="#2B303B" fill-rule="evenodd" opacity="0" mask="url(#mask-4)"></path>
                </g>
            </g>
        </g>
    </g>
</svg>